<svg width="104" height="100" viewBox="0 0 104 100" fill="none" xmlns="http://www.w3.org/2000/svg">
<path d="M1.72414 62.069C0.772414 62.069 0 61.2966 0 60.3448V5.17241C0 2.32069 2.32069 0 5.17241 0H98.2759C101.128 0 103.448 2.32069 103.448 5.17241V10.3448C103.448 11.2966 102.676 12.069 101.724 12.069C100.772 12.069 100 11.2966 100 10.3448V5.17241C100 4.22414 99.2241 3.44828 98.2759 3.44828H5.17241C4.22414 3.44828 3.44828 4.22414 3.44828 5.17241V60.3448C3.44828 61.2966 2.67586 62.069 1.72414 62.069Z" fill="#263238"/>
<path d="M51.7242 100H32.7587C31.8069 100 31.0345 99.2276 31.0345 98.2759C31.0345 97.3242 31.8069 96.5518 32.7587 96.5518H36.2069C39.0587 96.5518 41.3793 94.2311 41.3793 91.3794V82.7587C41.3793 81.807 42.1518 81.0345 43.1035 81.0345C44.0552 81.0345 44.8276 81.807 44.8276 82.7587V91.3794C44.8276 93.3208 44.1828 95.1104 43.1 96.5518H51.7242C52.6759 96.5518 53.4483 97.3242 53.4483 98.2759C53.4483 99.2276 52.6759 100 51.7242 100Z" fill="#263238"/>
<path d="M50 82.7587H5.17241C2.32069 82.7587 0 80.438 0 77.5862V67.2414C0 66.2897 0.772414 65.5173 1.72414 65.5173H50C50.9517 65.5173 51.7241 66.2897 51.7241 67.2414C51.7241 68.1931 50.9517 68.9655 50 68.9655H3.44828V77.5862C3.44828 78.5345 4.22414 79.3104 5.17241 79.3104H50C50.9517 79.3104 51.7241 80.0828 51.7241 81.0345C51.7241 81.9862 50.9517 82.7587 50 82.7587Z" fill="#263238"/>
<path d="M70.6897 24.138H87.931C88.8828 24.138 89.6552 23.3656 89.6552 22.4138C89.6552 21.4621 88.8828 20.6897 87.931 20.6897H70.6897C69.7379 20.6897 68.9655 21.4621 68.9655 22.4138C68.9655 23.3656 69.7379 24.138 70.6897 24.138Z" fill="url(#paint0_linear_30_25)"/>
<path d="M77.5862 93.1034H81.0345C81.9862 93.1034 82.7586 92.331 82.7586 91.3793C82.7586 90.4276 81.9862 89.6552 81.0345 89.6552H77.5862C76.6345 89.6552 75.8621 90.4276 75.8621 91.3793C75.8621 92.331 76.6345 93.1034 77.5862 93.1034Z" fill="#263238"/>
<path d="M94.9979 99.8296H63.9634C59.2082 99.8296 55.3427 95.9641 55.3427 91.209V22.2434C55.3427 17.4883 59.2082 13.6227 63.9634 13.6227H94.9979C99.7531 13.6227 103.619 17.4883 103.619 22.2434V91.209C103.619 95.9641 99.7531 99.8296 94.9979 99.8296ZM63.9634 17.071C61.1117 17.071 58.791 19.3917 58.791 22.2434V91.209C58.791 94.0607 61.1117 96.3814 63.9634 96.3814H94.9979C97.8496 96.3814 100.17 94.0607 100.17 91.209V22.2434C100.17 19.3917 97.8496 17.071 94.9979 17.071H63.9634Z" fill="url(#paint1_linear_30_25)"/>
<defs>
<linearGradient id="paint0_linear_30_25" x1="89.6552" y1="22.4138" x2="68.9655" y2="22.4138" gradientUnits="userSpaceOnUse">
<stop stop-color="#6100FF"/>
<stop offset="1" stop-color="#EE04C9"/>
</linearGradient>
<linearGradient id="paint1_linear_30_25" x1="103.619" y1="56.7262" x2="55.3427" y2="56.7262" gradientUnits="userSpaceOnUse">
<stop stop-color="#6100FF"/>
<stop offset="1" stop-color="#EE04C9"/>
</linearGradient>
</defs>
</svg>
