<svg width="67" height="100" viewBox="0 0 67 100" fill="none" xmlns="http://www.w3.org/2000/svg">
<path d="M64.1233 61.1253L58.9133 60.7245C58.3121 58.1195 57.3102 55.7149 55.9075 53.5106L59.314 49.5029C59.9152 48.7014 59.9152 47.4991 59.314 46.6975L57.2657 44.0874C56.5374 43.1594 55.1683 43.0601 54.3137 43.8732L53.8802 44.2857C53.1292 45.0002 53.0486 46.1701 53.6945 46.9809L54.9056 48.501L51.6994 52.3083C51.0983 52.9095 51.0983 54.1118 51.499 54.7129C53.3025 57.3179 54.5048 60.1233 55.106 63.1291C55.3063 63.9307 56.1079 64.7322 56.9094 64.7322L61.7187 65.133V69.5414H61.9191L57.1098 69.9422C56.1079 69.9422 55.5067 70.7438 55.3063 71.5453C54.7052 74.7515 53.5029 77.5569 51.6994 80.3623C51.2986 81.1638 51.2986 82.1657 51.8998 82.7669L54.9056 86.1734L51.6994 89.3796L48.2929 86.3738C47.6917 85.7727 46.4894 85.7727 45.8882 86.1734C43.2832 87.9769 40.2775 89.1792 37.0713 89.7804C36.2697 89.9808 35.4682 90.7823 35.4682 91.5838L35.0674 96.3931H30.4586L30.0578 91.9846C30.0578 90.9827 29.2563 90.3815 28.4547 90.1811C25.2485 89.58 22.2428 88.3777 19.6378 86.5742C18.8362 85.973 17.8343 86.1734 17.2331 86.7746L13.8266 89.7804L10.6204 86.5742L13.6262 83.1676C14.2274 82.5665 14.2274 81.5646 13.8266 80.763C12.0231 78.158 10.8208 75.1522 10.2197 71.9461C10.0193 70.9441 9.21772 70.343 8.41618 70.343L3.60693 69.9422V65.3334L8.41618 64.9326C9.21772 64.9326 10.0193 64.131 10.2197 63.3295C10.8208 60.3237 12.0231 57.5183 13.8266 54.9133C14.4277 54.1118 14.2274 53.1098 13.6262 52.5087L10.6204 48.3006L13.8266 45.0944L17.6339 48.501C18.2351 49.1021 19.237 49.1021 20.0385 48.7014C22.6435 46.8979 25.4489 45.896 28.4547 45.2948C29.2563 45.0944 30.0578 44.2929 30.0578 43.4913L30.4586 38.2813H30.5548C31.3363 38.2813 31.8157 37.4251 31.4074 36.7588L29.9469 34.3756C29.5833 33.7823 28.9084 33.4092 28.3066 33.7586C27.5467 34.1998 26.8516 34.9961 26.8516 35.6763L26.4509 41.0867C24.0462 41.6879 21.6416 42.6898 19.4374 43.8921L15.2293 40.2852C14.4277 39.684 13.2254 39.684 12.4239 40.4856L6.61271 46.2967C5.81117 47.0983 5.81117 48.3006 6.61271 49.1021L10.0193 53.1098C8.61657 55.3141 7.61464 57.7187 7.01349 60.3237L1.80347 60.7245C0.80154 60.7245 0 61.7264 0 62.7283V70.9441C0 71.9461 0.80154 72.948 1.80347 72.948L6.8131 73.3488C7.41426 75.9538 8.41618 78.3584 9.81888 80.763L6.61271 84.5703C6.01156 85.3719 6.01156 86.5742 6.61271 87.3757L12.4239 93.1869C13.2254 93.9885 14.4277 93.9885 15.2293 93.3873L19.0366 90.1811C21.4412 91.5838 23.8458 92.5858 26.6512 93.3873L27.052 98.1965C27.052 99.1985 28.0539 100 29.0559 100H37.2717C38.2736 100 39.2755 99.1985 39.2755 98.1965L39.6763 93.3873C42.2813 92.7861 44.8863 91.5838 47.2909 90.1811L51.0983 93.3873C51.8998 93.9885 53.1021 93.9885 53.9036 93.1869L59.7148 87.3757C60.5164 86.5742 60.5164 85.3719 59.7148 84.5703L56.5087 80.763C57.9114 78.3584 58.9133 75.9538 59.5144 73.3488L64.5241 72.948C65.526 72.948 66.3275 71.9461 66.3275 70.9441V62.7283C65.9268 62.1272 65.1252 61.3256 64.1233 61.1253Z" fill="black"/>
<path fill-rule="evenodd" clip-rule="evenodd" d="M31.1092 33.9653C29.3058 30.7591 28.5042 27.553 28.5042 24.3468C28.5042 11.1214 44.1343 0.701349 44.7354 0.300578C45.3366 -0.100193 46.3385 -0.100193 46.9397 0.300578C47.7412 0.701349 63.1709 11.1214 63.1709 24.3468C63.1709 31.3603 58.7624 37.5723 54.5543 41.9807L51.3481 45.1869C49.9877 46.3772 48.7716 47.279 47.9448 47.8921C47.7973 48.0015 47.6622 48.1017 47.5408 48.1927V67.4297C47.5408 75.6455 40.9281 82.2582 32.7123 82.2582C24.4965 82.2582 17.8838 75.6455 17.8838 67.4297C17.8838 59.2139 24.4965 52.6012 32.7123 52.6012C33.9146 52.6012 34.7162 53.4027 34.7162 54.605C34.7162 55.8073 33.9146 56.6089 32.7123 56.6089C26.7007 56.6089 21.8915 61.4181 21.8915 67.4297C21.8915 73.4412 26.7007 78.2505 32.7123 78.2505C38.7239 78.2505 43.5331 73.4412 43.5331 67.4297V48.1927C43.2397 47.8993 42.839 47.6059 42.3308 47.2339C42.1448 47.0978 41.9444 46.9511 41.7296 46.79C41.7296 46.5896 41.5293 46.5896 41.5293 46.5896C39.325 44.7861 36.3982 41.8193 33.7932 38.2124L31.1092 33.9653ZM58.7624 24.5472C58.7624 15.3295 48.9435 7.11368 45.537 4.70906C42.1304 7.31406 32.3115 15.3295 32.1111 24.3468C32.1111 27.7534 33.3135 31.3603 35.9185 34.9672C38.3231 38.1734 41.1285 40.9788 43.3327 42.7823V24.3468C43.3327 23.1445 44.1343 22.343 45.3366 22.343C46.5389 22.343 47.3404 23.1445 47.3404 24.3468V42.7823C48.142 42.3815 48.7431 41.7803 49.5447 40.9788L49.7451 40.7784L49.9454 40.578C53.9531 36.7707 58.7624 30.9595 58.7624 24.5472Z" fill="url(#paint0_linear_30_19)"/>
<defs>
<linearGradient id="paint0_linear_30_19" x1="63.1709" y1="41.1291" x2="17.8838" y2="41.1291" gradientUnits="userSpaceOnUse">
<stop stop-color="#6100FF"/>
<stop offset="1" stop-color="#EE04C9"/>
</linearGradient>
</defs>
</svg>
