<svg width="40" height="30" viewBox="0 0 40 30" fill="none" xmlns="http://www.w3.org/2000/svg">
<path d="M33.3333 0H6.66667C3 0 0 3 0 6.66667V23.3333C0 27 3 30 6.66667 30H33.3333C37 30 40 27 40 23.3333V6.66667C40 3 37 0 33.3333 0ZM36 9.66667L22.8333 18.5C22 19 21 19.3333 20 19.3333C19 19.3333 18 19 17.1667 18.5L4 9.66667C3.33333 9.16667 3.16667 8.16667 3.66667 7.33333C4.16667 6.66667 5.16667 6.5 6 7L19.1667 15.8333C19.6667 16.1667 20.5 16.1667 21 15.8333L34.1667 7C35 6.5 36 6.66667 36.5 7.5C36.8333 8.16667 36.6667 9.16667 36 9.66667Z" fill="#706BFD"/>
</svg>
