<svg width="30" height="30" viewBox="0 0 30 30" fill="none" xmlns="http://www.w3.org/2000/svg">
<path d="M15 0C6.71625 0 0 6.71562 0 15C0 23.2844 6.71625 30 15 30C23.285 30 30 23.2844 30 15C30 6.71562 23.285 0 15 0ZM15 8.57063C16.7556 8.57063 18.1775 9.9925 18.1775 11.7475C18.1775 13.5031 16.7556 14.925 15 14.925C13.2456 14.925 11.8231 13.5031 11.8231 11.7475C11.8231 9.9925 13.2456 8.57063 15 8.57063ZM20.3638 23.5562C18.8069 24.5169 16.9788 25.0806 15.0144 25.0806C13.0388 25.0806 11.1994 24.51 9.63687 23.5387V17.0788C9.63687 16.5138 10.095 16.055 10.6606 16.055H19.3406C19.9056 16.055 20.3644 16.5131 20.3644 17.0788V23.5562H20.3638Z" fill="#706BFD"/>
</svg>
