<svg width="14" height="20" viewBox="0 0 14 20" fill="none" xmlns="http://www.w3.org/2000/svg">
<path d="M6.70031 20L6.35566 19.5012C6.09644 19.1256 0 10.2594 0 6.70031C0 3.00593 3.00593 0 6.70031 0C10.3947 0 13.4006 3.00593 13.4006 6.70031C13.4006 10.2594 7.30417 19.1256 7.04496 19.5012L6.70031 20ZM6.70031 0.837539C3.46741 0.837539 0.837539 3.46741 0.837539 6.70031C0.837539 9.5425 5.39584 16.5644 6.70031 18.5155C8.00478 16.5644 12.5631 9.5425 12.5631 6.70031C12.5631 3.46741 9.93321 0.837539 6.70031 0.837539Z" fill="white" fill-opacity="0.65"/>
<path d="M6.70031 9.63169C5.08428 9.63169 3.76892 8.31676 3.76892 6.70031C3.76892 5.08386 5.08428 3.76892 6.70031 3.76892C8.31634 3.76892 9.63169 5.08386 9.63169 6.70031C9.63169 8.31676 8.31634 9.63169 6.70031 9.63169ZM6.70031 4.60646C5.54576 4.60646 4.60646 5.54576 4.60646 6.70031C4.60646 7.85486 5.54576 8.79415 6.70031 8.79415C7.85486 8.79415 8.79415 7.85486 8.79415 6.70031C8.79415 5.54576 7.85486 4.60646 6.70031 4.60646Z" fill="white" fill-opacity="0.65"/>
</svg>
