<svg id="Calque_1" data-name="Calque 1" xmlns="http://www.w3.org/2000/svg" viewBox="0 0 800 800"><defs><style>.cls-1{fill:#fff;}.cls-2{fill:#96e6a1;}</style></defs><rect class="cls-1" width="800" height="800"/><path class="cls-2" d="M180.58,292.39l-88-88,69.68-69.68L308.88,281.33a96.32,96.32,0,0,1-66.94,30.08A98.74,98.74,0,0,1,180.58,292.39Z"/><path class="cls-2" d="M539.79,204.38l-152.9,152.9a100,100,0,0,1-141.42,0l-60.42-60.42a99.18,99.18,0,0,0,18.13,10.6,102.76,102.76,0,0,0,78.46,2.31,104.46,104.46,0,0,0,34.54-21.14h0l84.25-84.25A98.53,98.53,0,0,1,539.79,204.38Z"/><path class="cls-2" d="M429.18,586.34a99.57,99.57,0,0,0,17.64-10.25L386.89,636a100,100,0,0,1-141.42,0L162.25,552.8a98.54,98.54,0,0,1,0-139.37L316.18,567.36h0a104.76,104.76,0,0,0,34.54,21.29A102.85,102.85,0,0,0,429.18,586.34Z"/><path class="cls-2" d="M678.13,344.78,451.28,571.63a98.71,98.71,0,0,1-60.85,18.65,96.31,96.31,0,0,1-67-30.15L609.47,274.06,539.8,204.39l69.68-69.69,68.65,68.65A100,100,0,0,1,678.13,344.78Z"/></svg>