<svg width="100" height="100" viewBox="0 0 100 100" fill="none" xmlns="http://www.w3.org/2000/svg">
<rect width="100" height="100" rx="20" fill="white"/>
<path fill-rule="evenodd" clip-rule="evenodd" d="M50.0004 84C22.5786 84 16 77.4222 16 50.0004C16 22.5786 22.5786 16 50.0004 16C77.4222 16 84 22.5786 84 50.0004C84 77.4222 77.4222 84 50.0004 84ZM40.3753 32.8271L29.7109 57.063C29.168 58.3354 28.863 59.6966 28.811 61.0791C28.811 67.1032 33.0354 71.3276 39.0596 71.3276C40.8646 71.2643 42.6477 70.911 44.3404 70.2813V70.2813C46.155 69.6118 48.0663 69.2415 49.9996 69.1848C51.9174 69.2366 53.8133 69.6071 55.6094 70.2813V70.2813C57.3162 70.9238 59.1175 71.2797 60.9404 71.3346C66.9646 71.3346 71.189 67.1102 71.189 61.0861C71.1369 59.7037 70.8319 58.3425 70.2891 57.07L59.6224 32.8271C58.8554 30.9182 57.5213 29.2906 55.8001 28.1638C54.079 27.037 52.0536 26.4652 49.9973 26.5258C47.9409 26.4651 45.9155 27.0368 44.1943 28.1636C42.4731 29.2904 41.139 30.9182 40.3721 32.8271H40.3753ZM39.4746 60.8754L50.0004 37.0515L60.3875 60.8754C57.126 59.4021 53.5788 58.669 50.0004 58.7288C46.3773 58.6693 42.785 59.4019 39.4746 60.8754V60.8754Z" fill="#0F1723"/>
</svg>
