<svg width="30" height="30" viewBox="0 0 30 30" fill="none" xmlns="http://www.w3.org/2000/svg">
<path fill-rule="evenodd" clip-rule="evenodd" d="M30 28.125C30 29.16 29.16 30 28.125 30H1.875C0.84 30 0 29.16 0 28.125V1.875C0 0.84 0.84 0 1.875 0H28.125C29.16 0 30 0.84 30 1.875V28.125ZM10.3125 10.3125H6.5625V23.4375H10.3125V10.3125ZM15.9375 12.1875C16.1513 11.2669 16.6013 10.3125 19.2178 10.3125C22.9491 10.3125 23.4375 13.125 23.4375 16.875V23.4375H19.6875V15.9375C19.6875 14.7075 18.9994 14.0625 17.8125 14.0625C16.5966 14.0625 15.9375 14.7216 15.9375 15.9375V23.4375H12.1875V10.3125H15.9375V12.1875ZM8.4375 9.375C9.47303 9.375 10.3125 8.53553 10.3125 7.5C10.3125 6.46447 9.47303 5.625 8.4375 5.625C7.40197 5.625 6.5625 6.46447 6.5625 7.5C6.5625 8.53553 7.40197 9.375 8.4375 9.375Z" fill="#5D5FEF"/>
</svg>
