<svg width="71" height="100" viewBox="0 0 71 100" fill="none" xmlns="http://www.w3.org/2000/svg">
<path d="M22.6281 13.9141C22.5407 14.1012 22.5294 14.3149 22.5964 14.5101C22.6634 14.7054 22.8036 14.8671 22.9875 14.961L26.1125 16.5235C26.2203 16.5735 26.3374 16.6001 26.4562 16.6016C26.6334 16.6024 26.8055 16.5429 26.9443 16.433C27.0832 16.323 27.1806 16.1692 27.2206 15.9966C27.2605 15.8241 27.2407 15.6431 27.1643 15.4833C27.0878 15.3235 26.9594 15.1945 26.8 15.1173L23.675 13.5548C23.4879 13.4674 23.2743 13.456 23.079 13.523C22.8837 13.5901 22.7221 13.7303 22.6281 13.9141Z" fill="url(#paint0_linear_30_10)"/>
<path d="M28.0188 11.9137C28.1213 11.915 28.2229 11.8948 28.3171 11.8544C28.4112 11.814 28.4959 11.7544 28.5657 11.6793C28.6404 11.6092 28.7 11.5245 28.7407 11.4304C28.7814 11.3364 28.8024 11.235 28.8024 11.1325C28.8024 11.03 28.7814 10.9286 28.7407 10.8345C28.7 10.7404 28.6404 10.6557 28.5657 10.5856L25.4407 7.46059C25.2957 7.31555 25.0989 7.23407 24.8938 7.23407C24.6887 7.23407 24.492 7.31555 24.3469 7.46059C24.2019 7.60563 24.1204 7.80235 24.1204 8.00747C24.1204 8.21259 24.2019 8.4093 24.3469 8.55434L27.4719 11.6793C27.5417 11.7544 27.6264 11.814 27.7206 11.8544C27.8148 11.8948 27.9164 11.915 28.0188 11.9137V11.9137Z" fill="url(#paint1_linear_30_10)"/>
<path d="M33.4882 11.1326V9.57007C33.4882 9.36287 33.4058 9.16415 33.2593 9.01764C33.1128 8.87113 32.9141 8.78882 32.7069 8.78882C32.4997 8.78882 32.301 8.87113 32.1545 9.01764C32.008 9.16415 31.9257 9.36287 31.9257 9.57007V11.1326C31.9257 11.3398 32.008 11.5385 32.1545 11.685C32.301 11.8315 32.4997 11.9138 32.7069 11.9138C32.9141 11.9138 33.1128 11.8315 33.2593 11.685C33.4058 11.5385 33.4882 11.3398 33.4882 11.1326Z" fill="url(#paint2_linear_30_10)"/>
<path d="M39.5773 42.1308L44.9713 36.8703L50.4092 31.2449C50.5927 31.0675 50.8167 30.9377 51.0619 30.8669C51.307 30.7961 51.5658 30.7864 51.8156 30.8386C55.6449 31.648 59.6384 30.9908 63.0065 28.9972C66.3745 27.0036 68.8718 23.8186 70.0044 20.0722C70.6218 18.05 70.8186 15.9228 70.5826 13.8217C70.5159 13.2339 70.2838 12.6771 69.9131 12.216C69.5425 11.7549 69.0486 11.4085 68.4889 11.217C67.9292 11.0255 67.3266 10.9968 66.7512 11.1343C66.1758 11.2717 65.6512 11.5697 65.2385 11.9935L60.8944 16.4313C60.7491 16.5778 60.5763 16.694 60.3859 16.7733C60.1955 16.8527 59.9912 16.8935 59.7849 16.8935C59.5786 16.8935 59.3744 16.8527 59.184 16.7733C58.9936 16.694 58.8207 16.5778 58.6755 16.4313L54.3001 12.0716C54.1515 11.9219 54.0348 11.7436 53.9569 11.5476C53.879 11.3516 53.8416 11.1418 53.847 10.9309C53.8458 10.7215 53.8866 10.514 53.9672 10.3208C54.0477 10.1275 54.1662 9.95236 54.3158 9.8058L58.6755 5.36797C59.092 4.95067 59.382 4.42403 59.512 3.8489C59.6419 3.27377 59.6066 2.6736 59.4099 2.11773C59.2108 1.57333 58.8642 1.09502 58.4089 0.736286C57.9536 0.377546 57.4075 0.15251 56.8316 0.0863313C54.7293 -0.133801 52.6043 0.0680778 50.5811 0.680125C46.8524 1.82824 43.6881 4.32965 41.7103 7.69258C39.7324 11.0555 39.0841 15.0367 39.8928 18.8533C39.9513 19.1115 39.9433 19.3803 39.8695 19.6344C39.7957 19.8886 39.6586 20.1199 39.4709 20.3066L30.3765 29.2135L32.1266 31.8856L41.6117 22.463C42.1596 21.9124 42.562 21.2344 42.783 20.4898C43.0039 19.7452 43.0364 18.9573 42.8774 18.1971C42.4661 16.3129 42.509 14.3579 43.0024 12.4935C43.5263 10.425 44.5755 8.52677 46.0483 6.98275C47.5212 5.43873 49.3678 4.3012 51.4093 3.68035C53.0399 3.17026 54.7599 3.0105 56.4566 3.21156L52.0969 7.64939C51.6598 8.08491 51.3131 8.60242 51.0765 9.17223C50.8399 9.74205 50.7181 10.353 50.7181 10.97C50.7181 11.5869 50.8399 12.1979 51.0765 12.7677C51.3131 13.3375 51.6598 13.855 52.0969 14.2905L56.5191 18.744C57.4141 19.5971 58.6031 20.0729 59.8396 20.0729C61.0761 20.0729 62.2651 19.5971 63.1602 18.744L67.598 14.228C67.7815 15.9083 67.6275 17.6084 67.1448 19.2284C66.5303 21.2999 65.3827 23.1737 63.817 24.6627C62.2512 26.1517 60.322 27.2036 58.2223 27.7134C56.3432 28.215 54.371 28.2579 52.4719 27.8384C51.7092 27.6767 50.9183 27.7078 50.1707 27.9288C49.4231 28.1498 48.7425 28.5538 48.1903 29.1041L37.1452 39.9937L39.5773 42.1308Z" fill="url(#paint3_linear_30_10)"/>
<path fill-rule="evenodd" clip-rule="evenodd" d="M2.25789 64.5409C2.87515 65.1437 3.58797 65.64 4.36742 66.0098C4.63042 71.2151 5.74968 76.3415 7.68017 81.1828C8.49513 83.1172 8.91995 85.1935 8.93026 87.2926V92.8243C8.93026 94.0676 9.42416 95.2599 10.3033 96.1391C11.1824 97.0182 12.3748 97.5121 13.6181 97.5121H32.3695C33.6128 97.5121 34.8052 97.0182 35.6843 96.1391C36.5635 95.2599 37.0574 94.0676 37.0574 92.8243C37.0596 90.1473 37.9746 87.5512 39.6513 85.4643L49.8552 72.7447C50.0271 72.5571 50.1833 72.354 50.3396 72.1665C50.4959 71.979 50.6521 71.8383 50.7927 71.6508C50.9334 71.4633 51.0896 71.2289 51.2303 71.0101L51.6209 70.4476C51.7616 70.2132 51.8553 69.9788 51.9803 69.7601C52.1053 69.5413 52.1991 69.3538 52.2929 69.1506C52.3866 68.9475 52.496 68.6506 52.5898 68.4006L52.8242 67.7912C52.8242 67.5255 52.9648 67.2599 53.0273 66.9786C53.0898 66.6973 53.1367 66.5879 53.1835 66.3848C53.2304 66.1817 53.1836 65.8066 53.2929 65.5254C53.4023 65.2441 53.2929 65.1347 53.3867 64.9316C53.4804 64.7284 53.3867 64.2753 53.3867 63.9471V63.4627C53.3708 62.9706 53.3239 62.48 53.2461 61.9939L53.121 61.2438L51.5584 51.118C51.3838 50.0398 51.0686 48.9891 50.6209 47.9928C50.596 47.9273 50.5645 47.8645 50.5271 47.8053C49.1308 44.8535 46.635 42.5652 43.5735 41.4298L38.6981 39.6953L36.2448 37.4608C36.1075 37.0507 35.924 36.6575 35.6979 36.2888L31.2757 29.3977L29.5255 26.7256C28.8046 25.7763 27.8273 25.0529 26.7088 24.6408C25.5903 24.2287 24.3773 24.1449 23.2128 24.3995C22.0483 24.6541 20.9809 25.2364 20.1364 26.0776C19.2919 26.9189 18.7056 27.9841 18.4466 29.1477C17.5168 28.8843 16.5385 28.8402 15.5887 29.0187C14.6389 29.1972 13.7435 29.5935 12.9727 30.1765C12.202 30.7595 11.5769 31.5133 11.1466 32.3786C10.7163 33.244 10.4925 34.1973 10.4929 35.1637C10.4881 35.9056 10.6205 36.642 10.8835 37.3358H10.5085C9.53171 37.492 8.60594 37.8778 7.8073 38.4614C7.00865 39.0451 6.35995 39.81 5.91451 40.6933C5.46908 41.5765 5.23964 42.5529 5.24506 43.542C5.25047 44.5312 5.49059 45.505 5.94566 46.3833C4.39614 46.8678 3.09591 47.9361 2.32013 49.3623C1.54436 50.7884 1.35391 52.4604 1.78911 54.0245C0.556 55.5175 -0.078789 57.4151 0.00782645 59.3495C0.0944419 61.2839 0.896289 63.1173 2.25789 64.494V64.5409ZM3.59806 57.0247L3.55486 56.9935L3.64862 56.9153C3.63128 56.9516 3.61443 56.9881 3.59806 57.0247L3.83613 57.1966C3.9866 57.3399 4.14861 57.4706 4.32054 57.5873C4.62718 57.7971 4.95132 57.98 5.28937 58.1342L11.5398 60.8219C11.8178 60.944 12.1052 61.0433 12.3993 61.1188L11.1336 62.3689C10.9349 62.5585 10.7206 62.731 10.4929 62.8845L10.2741 63.0252L9.75845 63.2908L9.47718 63.4158L8.88338 63.5877H8.43023H8.18021C7.5781 63.6221 6.97471 63.548 6.39882 63.369C5.70987 63.1497 5.08312 62.7694 4.57056 62.2595C3.88207 61.5741 3.42354 60.6916 3.25838 59.7343C3.10005 58.8165 3.21882 57.8733 3.59806 57.0247ZM48.4019 51.6181C48.0742 49.5656 47.0738 47.6803 45.558 46.2583C44.6361 45.4362 43.5644 44.7996 42.4015 44.3832L30.0256 39.7266C29.6359 39.6024 29.2132 39.636 28.848 39.8201C28.4828 40.0041 28.2043 40.324 28.0723 40.711C27.9365 41.1287 27.8371 41.5575 27.7754 41.9924C27.7668 42.0755 27.7668 42.1593 27.7754 42.2424C27.7677 42.3464 27.7677 42.4509 27.7754 42.5549C27.752 42.8409 27.752 43.1283 27.7754 43.4143C27.7676 43.4766 27.7676 43.5396 27.7754 43.6019C27.76 43.8047 27.76 44.0084 27.7754 44.2113C27.8067 44.4457 27.8379 44.7269 27.8848 44.9145C27.9317 45.102 27.9785 45.2739 28.0411 45.4926C28.1036 45.7114 28.1817 45.9145 28.2598 46.1177C28.3834 46.43 28.5296 46.733 28.6974 47.024C28.7755 47.1646 28.8692 47.3053 28.963 47.4459C29.1166 47.7166 29.2944 47.9729 29.4943 48.2116C30.4059 49.3226 31.6062 50.1607 32.9633 50.6336L36.7292 52.1962C37.6484 52.5515 38.4546 53.1485 39.0625 53.9242C39.6704 54.6998 40.0574 55.6253 40.1826 56.6028C40.3245 57.8305 40.0546 59.0706 39.4154 60.1284C38.7763 61.1861 37.8039 62.0017 36.6511 62.447C29.3537 65.1816 25.4002 69.5882 24.5564 75.8386C24.5068 76.2169 24.3206 76.564 24.0327 76.8144C23.7449 77.0649 23.3753 77.2013 22.9938 77.1981H22.7907C22.383 77.1328 22.0178 76.9087 21.7747 76.5749C21.5317 76.2412 21.4307 75.8248 21.4937 75.4167C22.4469 67.9943 27.1816 62.6189 35.5572 59.4937C36.0622 59.3056 36.49 58.9546 36.773 58.4961C37.056 58.0376 37.1781 57.4979 37.1199 56.9622C37.0659 56.5257 36.891 56.113 36.6148 55.7706C36.3387 55.4282 35.9724 55.1698 35.5572 55.0246L31.8382 53.6026C30.3381 53.0867 28.9716 52.2433 27.8379 51.1337C27.3604 51.2354 26.8729 51.2825 26.3847 51.2743C26.215 52.1212 25.8631 52.921 25.3534 53.6182C25.1561 53.8817 24.9421 54.1323 24.7127 54.3683L24.6189 54.4464C23.8887 55.195 22.9715 55.7345 21.9625 56.009L13.1962 64.619C12.8176 64.9865 12.4042 65.3162 11.9617 65.6035L11.7117 65.7285C11.3462 65.949 10.9649 66.1422 10.571 66.3067L10.1804 66.4161C9.82485 66.5459 9.45891 66.6453 9.08652 66.713C8.95642 66.7207 8.82597 66.7207 8.69587 66.713C8.37559 66.7674 8.05182 66.7987 7.72705 66.8067H7.4614C7.78792 71.3275 8.81045 75.7708 10.4929 79.9796C11.4954 82.2889 12.0267 84.7752 12.0555 87.2926V92.8243C12.0555 93.2387 12.2201 93.6362 12.5132 93.9292C12.8062 94.2223 13.2037 94.3869 13.6181 94.3869H32.3695C32.7839 94.3869 33.1814 94.2223 33.4744 93.9292C33.7675 93.6362 33.9321 93.2387 33.9321 92.8243C33.9169 89.4149 35.0756 86.1043 37.2136 83.4486L47.4644 70.7758L47.5738 70.6664C48.4768 69.7447 49.1824 68.6485 49.6472 67.4448C50.112 66.2411 50.3263 64.9552 50.2771 63.6659C50.2639 63.2941 50.2273 62.9236 50.1677 62.5564L48.4019 51.6181ZM24.0223 27.3492C23.6179 27.4194 23.2312 27.5686 22.8844 27.7882V27.8194C22.3486 28.1648 21.9312 28.6657 21.6882 29.255C21.4452 29.8444 21.3882 30.4939 21.5249 31.1166L27.0722 37.2889C27.2124 37.1913 27.3585 37.1026 27.5098 37.0233C28.06 36.7462 28.6604 36.5827 29.2751 36.5425C29.8899 36.5022 30.5065 36.586 31.0882 36.7889L32.6508 37.367L27.9629 29.9602L27.1972 28.757C26.9777 28.4102 26.692 28.11 26.3564 27.8736C26.0209 27.6372 25.642 27.4692 25.2415 27.3792C24.841 27.2893 24.4267 27.2791 24.0223 27.3492ZM15.5598 32.2393C15.1775 32.3994 14.8309 32.6339 14.5401 32.9292V32.8979C13.958 33.4835 13.6313 34.2756 13.6313 35.1012C13.6313 35.9269 13.958 36.719 14.5401 37.3045L17.0402 39.8047L25.5565 47.7584C24.5199 45.492 24.2884 42.9395 24.9002 40.5235C24.933 40.412 24.9631 40.3032 24.9927 40.196C25.0336 40.0479 25.0736 39.9029 25.119 39.7578L18.9935 32.9292C18.7027 32.6339 18.3561 32.3994 17.9738 32.2393C17.5915 32.0793 17.1812 31.9968 16.7668 31.9968C16.3523 31.9968 15.942 32.0793 15.5598 32.2393ZM10.9647 40.4733C10.1473 40.6051 9.41558 41.0559 8.93026 41.7267C8.49163 42.3777 8.31401 43.1698 8.43271 43.9458C8.55141 44.7217 8.95775 45.4245 9.57093 45.9145L10.7429 46.774L19.1966 52.7119C19.737 52.908 20.3209 52.9512 20.8843 52.8369C21.4654 52.7392 22.0072 52.4792 22.4469 52.0869C22.5734 51.9676 22.6885 51.8368 22.7907 51.6962C23.1212 51.2373 23.3211 50.6972 23.3688 50.1336L14.8526 42.2111L13.29 41.0235C12.6184 40.5394 11.782 40.3414 10.9647 40.4733ZM6.0402 49.7348C5.5293 50.068 5.12706 50.5434 4.88309 51.1024L4.91434 51.1493C4.75448 51.549 4.67891 51.9773 4.69235 52.4075C4.7058 52.8378 4.80797 53.2606 4.99247 53.6495L5.08623 53.8214C5.30729 54.2772 5.62766 54.6776 6.02379 54.9933C6.18451 55.1106 6.35739 55.2101 6.53946 55.2902L12.7899 57.9935C13.5554 58.3104 14.4153 58.3104 15.1807 57.9935C15.5575 57.8253 15.896 57.582 16.1754 57.2783C16.4549 56.9747 16.6694 56.6172 16.8058 56.2278C16.9626 55.8461 17.0423 55.4372 17.0402 55.0246L9.1334 49.4773H9.00839C8.6133 49.3089 8.18775 49.2238 7.7583 49.2273C7.14835 49.2252 6.55111 49.4016 6.0402 49.7348Z" fill="#190933"/>
<path fill-rule="evenodd" clip-rule="evenodd" d="M3.55486 56.9935L3.59806 57.0247C3.61443 56.9881 3.63128 56.9516 3.64862 56.9153L3.55486 56.9935Z" fill="#190933"/>
<defs>
<linearGradient id="paint0_linear_30_10" x1="27.2407" y1="15.0407" x2="22.5532" y2="15.0407" gradientUnits="userSpaceOnUse">
<stop stop-color="#6100FF"/>
<stop offset="1" stop-color="#EE04C9"/>
</linearGradient>
<linearGradient id="paint1_linear_30_10" x1="28.8024" y1="9.57392" x2="24.1204" y2="9.57392" gradientUnits="userSpaceOnUse">
<stop stop-color="#6100FF"/>
<stop offset="1" stop-color="#EE04C9"/>
</linearGradient>
<linearGradient id="paint2_linear_30_10" x1="33.4882" y1="10.3513" x2="31.9257" y2="10.3513" gradientUnits="userSpaceOnUse">
<stop stop-color="#6100FF"/>
<stop offset="1" stop-color="#EE04C9"/>
</linearGradient>
<linearGradient id="paint3_linear_30_10" x1="70.6794" y1="50" x2="14.4691" y2="50" gradientUnits="userSpaceOnUse">
<stop stop-color="#6100FF"/>
<stop offset="1" stop-color="#EE04C9"/>
</linearGradient>
</defs>
</svg>
