<svg width="21" height="16" viewBox="0 0 21 16" fill="none" xmlns="http://www.w3.org/2000/svg">
<path d="M1.0125 8.85074H16.7933L11.3623 14.0846C10.9669 14.4656 10.9669 15.0835 11.362 15.4642C11.7574 15.8453 12.3988 15.8453 12.7942 15.4642L19.9533 8.56486C20.0004 8.51948 20.0424 8.46948 20.0794 8.4163C20.0964 8.39166 20.1083 8.36508 20.1229 8.33946C20.1396 8.30921 20.1589 8.28043 20.1723 8.24848C20.1867 8.21554 20.1948 8.18139 20.2049 8.14724C20.2133 8.12017 20.2242 8.09431 20.23 8.0665C20.2432 8.00308 20.25 7.93917 20.25 7.87502C20.25 7.87428 20.2497 7.87355 20.2497 7.87282C20.2495 7.80964 20.2429 7.74622 20.23 7.68402C20.2239 7.65474 20.2125 7.62767 20.2037 7.59888C20.1938 7.56644 20.1862 7.53351 20.1725 7.50204C20.1579 7.46814 20.1381 7.4374 20.1199 7.40545C20.1062 7.38154 20.0953 7.35715 20.0796 7.33422C20.0427 7.28031 20.0002 7.23006 19.9528 7.18444L12.794 0.285797C12.3986 -0.0952249 11.7574 -0.0952252 11.362 0.285553C10.9666 0.666575 10.9666 1.28446 11.362 1.66572L16.7931 6.89929H1.0125C0.453347 6.89929 0 7.33617 0 7.87502C0 8.41386 0.453347 8.85074 1.0125 8.85074Z" fill="#7B7B7B"/>
</svg>
