<svg width="30" height="30" viewBox="0 0 30 30" fill="none" xmlns="http://www.w3.org/2000/svg">
<path d="M28.6303 21.767C27.3861 20.4886 23.8497 18.0937 21.5318 18.0937C20.9949 18.0937 20.5262 18.2131 20.1428 18.4602C19.0094 19.1847 18.1061 19.7472 17.6715 19.7472C17.4329 19.7472 17.1772 19.5341 16.6148 19.0483L16.5211 18.9631C14.9616 17.608 14.6293 17.2585 14.0242 16.6278L13.8709 16.4659C13.7601 16.3551 13.6663 16.2528 13.5726 16.1591C13.0443 15.6136 12.6608 15.2216 11.3058 13.6875L11.2462 13.6193C10.5986 12.8864 10.1725 12.4091 10.1469 12.0597C10.1213 11.7188 10.4196 11.1648 11.178 10.1335C12.0984 8.8892 12.1324 7.35511 11.2888 5.57386C10.6156 4.16761 9.51631 2.82102 8.54485 1.63636L8.45963 1.53409C7.62451 0.511364 6.65305 0 5.57081 0C4.36926 0 3.37223 0.647727 2.84389 0.988636C2.80129 1.0142 2.75868 1.0483 2.71607 1.07386C1.53157 1.82386 0.670884 2.85511 0.347063 3.90341C-0.138668 5.48011 -0.462489 7.52557 1.86391 11.7784C3.87501 15.4602 5.69863 17.9318 8.59598 20.9062C11.3229 23.7017 12.533 24.6051 15.2428 26.5653C18.2595 28.7472 21.1568 30 23.185 30C25.0682 30 26.551 30 28.6644 27.4517C30.88 24.7756 29.9596 23.1392 28.6303 21.767Z" fill="#706BFD"/>
</svg>
