<?xml version="1.0" encoding="utf-8"?>
<!-- Generator: Adobe Illustrator 26.0.3, SVG Export Plug-In . SVG Version: 6.00 Build 0)  -->
<svg version="1.1" id="Calque_1" xmlns="http://www.w3.org/2000/svg" xmlns:xlink="http://www.w3.org/1999/xlink" x="0px" y="0px"
	 viewBox="0 0 800 800" style="enable-background:new 0 0 800 800;" xml:space="preserve">
<style type="text/css">
	.st0{fill:#96E6A1;}
	.st1{fill:#FFFFFF;}
</style>
<rect x="0" class="st0" width="800" height="800"/>
<rect x="-820" class="st1" width="800" height="800"/>
<g>
	<path class="st1" d="M180.6,292.4l-88-88l69.7-69.7l146.6,146.6c-17.1,18.3-41.7,29.4-66.9,30.1
		C220.1,312.2,198.2,305.3,180.6,292.4z"/>
	<path class="st1" d="M539.8,204.4L386.9,357.3c-39,39.1-102.4,39.1-141.4,0l-60.4-60.4c5.6,4.1,11.7,7.7,18.1,10.6
		c24.4,11.1,53.3,11.9,78.5,2.3c12.6-4.8,24.6-11.8,34.5-21.1l0,0l84.2-84.3C438.9,165.9,501.3,165.9,539.8,204.4z"/>
	<path class="st1" d="M429.2,586.3c6.2-2.8,12.2-6.3,17.6-10.2L386.9,636c-39,39-102.4,39-141.4,0l-83.2-83.2
		c-38.5-38.5-38.5-100.9,0-139.4l153.9,153.9l0,0c10,9.3,21.9,16.5,34.5,21.3C375.9,598.3,404.8,597.4,429.2,586.3z"/>
	<path class="st1" d="M678.1,344.8L451.3,571.6c-17.6,12.7-39.3,19.4-60.9,18.7c-25.3-0.7-49.9-11.8-67-30.2l286.1-286.1l-69.7-69.7
		l69.7-69.7l68.7,68.7C717.2,242.4,717.2,305.7,678.1,344.8z"/>
</g>
<g>
	<path class="st1" d="M180.6-527.6l-88-88l69.7-69.7l146.6,146.6c-17.1,18.3-41.7,29.4-66.9,30.1
		C220.1-507.8,198.2-514.7,180.6-527.6z"/>
	<path class="st1" d="M539.8-615.6L386.9-462.7c-39,39.1-102.4,39.1-141.4,0l-60.4-60.4c5.6,4.1,11.7,7.7,18.1,10.6
		c24.4,11.1,53.3,11.9,78.5,2.3c12.6-4.8,24.6-11.8,34.5-21.1l0,0l84.2-84.2C438.9-654.1,501.3-654.1,539.8-615.6z"/>
	<path class="st1" d="M429.2-233.7c6.2-2.8,12.2-6.3,17.6-10.2L386.9-184c-39,39-102.4,39-141.4,0l-83.2-83.2
		c-38.5-38.5-38.5-100.9,0-139.4l153.9,153.9l0,0c10,9.3,21.9,16.5,34.5,21.3C375.9-221.7,404.8-222.6,429.2-233.7z"/>
	<path class="st1" d="M678.1-475.2L451.3-248.4c-17.6,12.7-39.3,19.4-60.9,18.7c-25.3-0.7-49.9-11.8-67-30.2l286.1-286.1l-69.7-69.7
		l69.7-69.7l68.7,68.7C717.2-577.6,717.2-514.3,678.1-475.2z"/>
</g>
<g>
	<path class="st0" d="M-639.4,292.4l-88-88l69.7-69.7l146.6,146.6c-17.1,18.3-41.7,29.4-66.9,30.1
		C-599.9,312.2-621.8,305.3-639.4,292.4z"/>
	<path class="st0" d="M-280.2,204.4l-152.9,152.9c-39,39.1-102.4,39.1-141.4,0l-60.4-60.4c5.6,4.1,11.7,7.7,18.1,10.6
		c24.4,11.1,53.3,11.9,78.5,2.3c12.6-4.8,24.6-11.8,34.5-21.1l0,0l84.2-84.3C-381.1,165.9-318.7,165.9-280.2,204.4z"/>
	<path class="st0" d="M-390.8,586.3c6.2-2.8,12.2-6.3,17.6-10.2l-59.9,59.9c-39,39-102.4,39-141.4,0l-83.2-83.2
		c-38.5-38.5-38.5-100.9,0-139.4l153.9,153.9l0,0c10,9.3,21.9,16.5,34.5,21.3C-444.1,598.3-415.2,597.4-390.8,586.3z"/>
	<path class="st0" d="M-141.9,344.8l-226.8,226.8c-17.6,12.7-39.3,19.4-60.9,18.7c-25.3-0.7-49.9-11.8-67-30.2l286.1-286.1
		l-69.7-69.7l69.7-69.7l68.7,68.7C-102.8,242.4-102.8,305.7-141.9,344.8z"/>
</g>
<g>
	<path class="st0" d="M-639.4-527.6l-88-88l69.7-69.7l146.6,146.6c-17.1,18.3-41.7,29.4-66.9,30.1
		C-599.9-507.8-621.8-514.7-639.4-527.6z"/>
	<path class="st0" d="M-280.2-615.6l-152.9,152.9c-39,39.1-102.4,39.1-141.4,0l-60.4-60.4c5.6,4.1,11.7,7.7,18.1,10.6
		c24.4,11.1,53.3,11.9,78.5,2.3c12.6-4.8,24.6-11.8,34.5-21.1l0,0l84.2-84.2C-381.1-654.1-318.7-654.1-280.2-615.6z"/>
	<path class="st0" d="M-390.8-233.7c6.2-2.8,12.2-6.3,17.6-10.2l-59.9,59.9c-39,39-102.4,39-141.4,0l-83.2-83.2
		c-38.5-38.5-38.5-100.9,0-139.4l153.9,153.9l0,0c10,9.3,21.9,16.5,34.5,21.3C-444.1-221.7-415.2-222.6-390.8-233.7z"/>
	<path class="st0" d="M-141.9-475.2l-226.8,226.8c-17.6,12.7-39.3,19.4-60.9,18.7c-25.3-0.7-49.9-11.8-67-30.2l286.1-286.1
		l-69.7-69.7l69.7-69.7l68.7,68.7C-102.8-577.6-102.8-514.3-141.9-475.2z"/>
</g>
</svg>
