<svg width="92" height="100" viewBox="0 0 92 100" fill="none" xmlns="http://www.w3.org/2000/svg">
<path d="M0 20C0 8.9543 8.95431 0 20 0H72C83.0457 0 92 8.95431 92 20V80C92 91.0457 83.0457 100 72 100H20C8.95431 100 0 91.0457 0 80V20Z" fill="white"/>
<path d="M75.959 16L70.4965 77.1929L45.9428 84L21.4566 77.2025L16 16H75.959Z" fill="#264DE4"/>
<path d="M65.8201 73.2963L70.4881 21.0042H45.9795V78.7969L65.8201 73.2963Z" fill="#2965F1"/>
<path d="M28.5092 43.7035L29.182 51.2096H45.9795V43.7035H28.5092Z" fill="#EBEBEB"/>
<path d="M45.9795 28.5105H45.9535H27.1574L27.8398 36.0168H45.9795V28.5105Z" fill="#EBEBEB"/>
<path d="M45.9795 71.0075V63.1978L45.9466 63.2066L37.5868 60.9493L37.0524 54.9627H29.5173L30.569 66.7486L45.9449 71.017L45.9795 71.0075Z" fill="#EBEBEB"/>
<path d="M55.1966 51.2094L54.3253 60.9444L45.9535 63.204V71.0133L61.3417 66.7485L63.2185 45.7189L63.4016 43.7033L64.7567 28.5105H45.9535L45.9535 36.0168H56.5306L55.8475 43.7033H45.9535V51.2094H55.1966Z" fill="white"/>
</svg>
