<svg width="100" height="100" viewBox="0 0 100 100" fill="none" xmlns="http://www.w3.org/2000/svg">
<rect width="100" height="100" rx="20" fill="white"/>
<path d="M16 16V84C42.5557 84 57.4443 84 84 84V16H16ZM52.4286 68.8214C52.4286 75.4408 48.5186 78.6678 42.8585 78.6678C37.7463 78.6678 34.7789 76.0206 33.2732 72.8255L38.4764 69.676C39.4797 71.4564 40.2417 72.9621 42.432 72.9621C44.2534 72.9621 45.75 72.141 45.75 68.9459V47.5714H52.4286V68.8214ZM67.5085 78.516C61.5752 78.516 57.7411 75.8385 55.8696 72.141L61.0804 69.125C62.4464 71.3623 64.2299 72.8529 67.3795 72.8529C70.0266 72.8529 71.5642 71.6811 71.5642 69.8551C71.5642 67.6648 69.9811 66.8892 67.0592 65.6051L65.4624 64.919C60.8512 62.9579 57.7942 60.4929 57.7942 55.2882C57.7942 50.4963 61.4446 46.9962 67.1503 46.9962C71.2136 46.9962 74.1324 48.259 76.2346 51.9565L71.25 55.1607C70.1541 53.1981 68.9732 52.4286 67.1427 52.4286C65.2712 52.4286 64.0842 53.6155 64.0842 55.1607C64.0842 57.0778 65.2712 57.8534 68.0094 59.0404L69.6062 59.7249C75.0386 62.0533 78.097 64.4303 78.097 69.7671C78.0986 75.5197 73.5799 78.516 67.5085 78.516Z" fill="#F0DB4F"/>
<path d="M52.4286 68.8214C52.4286 75.4408 48.5186 78.6678 42.8585 78.6678C37.7463 78.6678 34.7789 76.0206 33.2732 72.8255L38.4764 69.676C39.4797 71.4564 40.2417 72.9621 42.432 72.9621C44.2534 72.9621 45.75 72.141 45.75 68.9459V47.5714H52.4286V68.8214Z" fill="#323330"/>
<path d="M67.5085 78.516C61.5752 78.516 57.7411 75.8385 55.8696 72.141L61.0804 69.125C62.4464 71.3623 64.2299 72.8529 67.3795 72.8529C70.0266 72.8529 71.5642 71.6811 71.5642 69.8551C71.5642 67.6648 69.9811 66.8892 67.0592 65.6051L65.4624 64.919C60.8512 62.9579 57.7942 60.4929 57.7942 55.2882C57.7942 50.4963 61.4446 46.9962 67.1503 46.9962C71.2136 46.9962 74.1324 48.259 76.2346 51.9565L71.25 55.1607C70.1541 53.1981 68.9732 52.4286 67.1427 52.4286C65.2712 52.4286 64.0842 53.6155 64.0842 55.1607C64.0842 57.0778 65.2712 57.8534 68.0094 59.0404L69.6062 59.7249C75.0386 62.0533 78.097 64.4303 78.097 69.7671C78.0986 75.5197 73.5799 78.516 67.5085 78.516Z" fill="#323330"/>
</svg>
