<svg width="68" height="68" viewBox="0 0 68 68" fill="none" xmlns="http://www.w3.org/2000/svg">
<path d="M40.0399 0.000244141C39.5482 0.000244141 39.0916 0.106027 38.6702 0.247065C39.5658 0.846488 40.0575 1.63985 40.3033 2.53898C40.3121 2.60066 40.3253 2.65353 40.3385 2.70639C40.3516 2.75931 40.3648 2.81222 40.3736 2.87395C40.3912 2.97974 40.4087 3.08552 40.4087 3.1913C40.4584 4.28812 40.236 4.70645 39.9834 5.18137C39.8788 5.37823 39.7689 5.5848 39.6711 5.85345C39.1619 7.03467 39.3023 8.30404 39.917 9.3266C39.9697 9.45 40.0399 9.59104 40.1277 9.71446C39.6584 6.57745 41.3519 5.31531 42.6365 4.35801C43.1784 3.95415 43.6475 3.60454 43.8507 3.1913C43.9033 1.97482 42.9024 1.16383 42.1121 0.599667C41.357 0.141284 40.6721 0.000244141 40.0399 0.000244141ZM45.6243 1.00516C45.58 1.2611 45.5846 1.31336 45.5896 1.37029C45.5926 1.40355 45.5957 1.43841 45.5892 1.51644C45.5804 1.58708 45.576 1.66657 45.5716 1.74605C45.5672 1.82524 45.5629 1.90442 45.5541 1.97482C45.519 2.11586 45.4839 2.2569 45.4312 2.39795C45.3961 2.53899 45.3434 2.68003 45.2907 2.82106C45.2555 2.8917 45.2247 2.95792 45.194 3.02414C45.1633 3.09014 45.1326 3.15615 45.0975 3.22656C45.0712 3.26182 45.0493 3.29706 45.0273 3.33229C45.0054 3.36757 44.9834 3.40284 44.9571 3.43812C44.922 3.49101 44.8868 3.5439 44.8517 3.59679C44.7639 3.72021 44.6761 3.84362 44.5883 3.9494C44.5532 3.98466 44.52 4.02188 44.4868 4.0591C44.4205 4.13354 44.3541 4.20797 44.2722 4.26674C44.2722 4.2844 44.2722 4.2844 44.2722 4.2844C44.2357 4.31488 44.1993 4.34748 44.1621 4.38072C44.0918 4.4436 44.0189 4.50881 43.9385 4.56647C43.7246 4.73009 43.493 4.86998 43.2608 5.01022C43.0926 5.11177 42.9242 5.21351 42.7619 5.32457C42.7285 5.34855 42.695 5.37123 42.662 5.39367C42.5734 5.4537 42.4874 5.51203 42.4107 5.58903C42.2878 5.67718 42.1824 5.76532 42.0771 5.8711C41.9624 5.96976 41.8783 6.06843 41.782 6.1814C41.775 6.18955 41.768 6.19777 41.7609 6.20607C41.7543 6.21412 41.7475 6.22228 41.7406 6.23053C41.6573 6.33064 41.5624 6.44466 41.4975 6.55868C41.4097 6.68209 41.3219 6.8055 41.2517 6.92891C41.2165 6.99953 41.1857 7.06573 41.155 7.13194C41.1243 7.19796 41.0936 7.26398 41.0585 7.3344C41.047 7.3651 41.0356 7.39497 41.0243 7.42437C40.9837 7.53001 40.9455 7.62956 40.918 7.73989C40.8653 7.89857 40.8302 8.03961 40.7951 8.18065C40.7863 8.21599 40.7819 8.25573 40.7775 8.29546C40.7731 8.33506 40.7688 8.37464 40.76 8.40984C40.7512 8.44524 40.7468 8.48062 40.7424 8.516C40.738 8.55114 40.7336 8.58627 40.7249 8.6214C40.7249 8.69192 40.7205 8.76685 40.7161 8.84178C40.7117 8.91671 40.7073 8.99164 40.7073 9.06216C40.7073 9.16794 40.7073 9.27372 40.7249 9.37951C40.7249 9.52054 40.7425 9.66159 40.7776 9.82026C40.7952 9.9613 40.8303 10.1023 40.8654 10.2434C40.8918 10.3139 40.9137 10.3845 40.9357 10.455C40.9576 10.5255 40.9795 10.596 41.0059 10.6665C41.0299 10.7268 41.0621 10.787 41.0913 10.8417C41.1048 10.867 41.1177 10.891 41.1288 10.9133L37.0898 9.34424C36.4049 9.15031 35.7376 8.97401 35.0527 8.81534C34.6839 8.72719 34.3151 8.63903 33.9464 8.55088C32.8927 8.33932 31.8215 8.18065 30.7503 8.07487C30.7327 8.07487 30.7196 8.07046 30.7064 8.06605C30.6932 8.06163 30.68 8.05722 30.6625 8.05722C29.6088 7.95144 28.5727 7.89855 27.519 7.89855C26.7464 7.89855 25.9737 7.93378 25.2185 7.9867C24.1473 8.05725 23.0761 8.19826 22.0049 8.37456C21.7419 8.40973 21.479 8.46252 21.2161 8.51531L21.2146 8.51561C20.6702 8.62138 20.1434 8.7448 19.6341 8.86821C19.3707 8.93876 19.1073 9.00925 18.8439 9.07977C18.6877 9.14249 18.5377 9.21142 18.3902 9.2792C18.2889 9.32572 18.1888 9.37169 18.0888 9.41475C17.8956 9.5029 17.7024 9.59105 17.5093 9.6792C17.4938 9.68696 17.4784 9.69131 17.4645 9.69524C17.4467 9.70025 17.4313 9.70458 17.4215 9.71444C17.3616 9.7445 17.3037 9.7725 17.2472 9.79986C17.1381 9.85273 17.0339 9.90316 16.9298 9.96126C16.8771 9.97891 16.8419 9.99649 16.8068 10.0142C16.6137 10.1023 16.4205 10.2081 16.2624 10.2962C16.1791 10.3321 16.0957 10.3761 16.0178 10.4172C15.9808 10.4367 15.9451 10.4555 15.9112 10.4725C15.8585 10.5078 15.7883 10.5431 15.7532 10.5607C15.5951 10.6488 15.4371 10.737 15.2966 10.8251C15.1385 10.9133 14.998 11.0014 14.8751 11.0896C14.8289 11.1227 14.7827 11.1534 14.7374 11.1834C14.6622 11.2333 14.5896 11.2814 14.5239 11.3364C14.5151 11.3452 14.5063 11.3497 14.4975 11.3541C14.4887 11.3585 14.48 11.3629 14.4712 11.3716C14.3658 11.4422 14.2429 11.5303 14.1376 11.6185C14.1376 11.6185 14.12 11.6361 14.1025 11.6537C14.0147 11.7242 13.9268 11.7947 13.839 11.8652C13.8215 11.8741 13.8039 11.8873 13.7863 11.9005C13.7688 11.9137 13.7512 11.927 13.7337 11.9358C13.6898 11.971 13.6459 12.0107 13.6021 12.0503C13.5581 12.09 13.5142 12.1297 13.4703 12.165C13.458 12.1896 13.4372 12.2056 13.4198 12.219C13.4123 12.2248 13.4053 12.2302 13.4 12.2355C13.3473 12.2884 13.2946 12.3369 13.242 12.3854C13.1893 12.4339 13.1366 12.4824 13.0839 12.5353C13.073 12.5353 13.0689 12.542 13.0631 12.5513C13.0596 12.5571 13.0555 12.5638 13.0488 12.5705C12.9434 12.6586 12.8381 12.7644 12.7327 12.8702C12.726 12.877 12.7218 12.8837 12.7183 12.8894C12.7125 12.8987 12.7084 12.9054 12.6976 12.9054C12.6098 12.9936 12.522 13.0817 12.4342 13.1875C12.4166 13.2051 12.3946 13.2228 12.3727 13.2404C12.3507 13.2581 12.3288 13.2757 12.3113 13.2933C12.2235 13.3991 12.1181 13.5049 12.0127 13.6106C12.0039 13.6282 11.9908 13.6415 11.9776 13.6547C11.9644 13.6679 11.9513 13.6812 11.9425 13.6988C11.8722 13.7693 11.8064 13.8398 11.7405 13.9103C11.6747 13.9809 11.6088 14.0514 11.5386 14.1219C11.521 14.1396 11.5035 14.1571 11.4859 14.1748C11.2049 14.4745 10.9063 14.7742 10.5903 15.0387C10.2742 15.3208 9.94051 15.5852 9.60684 15.8144C9.25562 16.0612 8.92197 16.2728 8.55318 16.4844C8.20196 16.6783 7.83318 16.8546 7.44684 17.0133C7.07806 17.1719 6.69172 17.313 6.30538 17.4364C6.02091 17.4976 5.73384 17.5797 5.45121 17.6606C5.00102 17.7895 4.5621 17.9152 4.16294 17.9476C4.06646 17.9476 3.96169 17.9643 3.86002 17.9804C3.81365 17.9878 3.76792 17.995 3.72391 18.0005C3.5688 18.0351 3.43061 18.0698 3.29274 18.1044C3.29012 18.105 3.2875 18.1057 3.28489 18.1063C3.1444 18.1592 3.00391 18.2121 2.86342 18.265C2.72293 18.3179 2.58245 18.3884 2.44196 18.4589C2.3805 18.503 2.31465 18.5427 2.2488 18.5823C2.18294 18.622 2.11708 18.6617 2.05561 18.7057C1.93269 18.7939 1.80976 18.8997 1.70439 19.0055C1.58147 19.0936 1.45854 19.217 1.35317 19.3228C1.31931 19.3625 1.28544 19.4003 1.25216 19.4375C1.18189 19.516 1.11422 19.5917 1.05464 19.6754C1.02068 19.7299 0.984089 19.7819 0.947922 19.8332C0.890581 19.9145 0.834297 19.9944 0.79122 20.0809C0.703417 20.2043 0.615614 20.3454 0.545366 20.4864C0.528666 20.5241 0.511969 20.5608 0.495508 20.597C0.442709 20.7131 0.392359 20.8238 0.352196 20.9448C0.299512 21.0858 0.24683 21.2445 0.194147 21.4032L0.193661 21.4051C0.158731 21.5455 0.123789 21.6859 0.106342 21.8263C0.106342 21.8351 0.101942 21.8439 0.0975437 21.8527C0.0931492 21.8615 0.0887547 21.8703 0.0887547 21.8792C0.0674667 21.9754 0.0590935 22.0911 0.0518723 22.1909C0.0471897 22.2556 0.0429916 22.3136 0.0360718 22.3552C0.0341434 22.3687 0.032217 22.382 0.0303135 22.3952C0.0148563 22.502 0.000976563 22.5979 0.000976563 22.7078C0.000976563 22.7784 0.000976203 22.8665 0.0185642 22.937C0.0361522 23.0604 0.0536589 23.1662 0.0888367 23.272C0.123931 23.3777 0.159109 23.4835 0.21176 23.5893C0.21176 23.607 0.21176 23.607 0.21176 23.607C0.264443 23.7127 0.334691 23.8185 0.40493 23.9243L0.405525 23.9252C0.475599 24.0307 0.545673 24.1362 0.633228 24.2416C0.721031 24.3298 0.826398 24.4356 0.931765 24.5237C1.03713 24.6295 1.1425 24.7177 1.26542 24.8058C1.31957 24.8534 1.36851 24.8969 1.41383 24.9372C1.72121 25.2104 1.86221 25.3357 2.33665 25.5815C2.39401 25.6161 2.45138 25.6431 2.51364 25.6725C2.54668 25.688 2.58109 25.7042 2.61762 25.7226C2.62642 25.7226 2.63519 25.727 2.64397 25.7314C2.65274 25.7358 2.66152 25.7402 2.67031 25.7402C2.67031 25.7755 2.67031 25.7931 2.6879 25.8284C2.70549 25.9694 2.74058 26.1105 2.7757 26.2515C2.8108 26.4102 2.86351 26.5512 2.9162 26.6746C2.94254 26.7275 2.96449 26.7804 2.98644 26.8333C3.00839 26.8862 3.03034 26.9391 3.05668 26.992L3.05738 26.9934C3.07473 27.0281 3.09201 27.0628 3.10937 27.0801C3.17964 27.2212 3.24985 27.3446 3.32009 27.468C3.4079 27.5914 3.4957 27.7148 3.58351 27.8382C3.67131 27.944 3.77668 28.0674 3.88204 28.1732C3.97406 28.2656 4.06608 28.3445 4.16979 28.4335C4.18484 28.4464 4.20013 28.4595 4.21571 28.4729C4.21571 28.4729 4.2333 28.4906 4.2508 28.4906C4.35617 28.5787 4.46153 28.6669 4.5669 28.7374C4.68982 28.8256 4.81276 28.8961 4.95324 28.9666C5.07617 29.0371 5.21666 29.1076 5.35714 29.1605C5.46251 29.2134 5.58543 29.2487 5.70836 29.2839C5.71928 29.2949 5.73016 29.2991 5.74525 29.3049C5.75448 29.3084 5.76528 29.3125 5.77863 29.3192C5.81384 29.328 5.85345 29.3369 5.89304 29.3457C5.93246 29.3545 5.97188 29.3633 6.00692 29.3721C5.95424 30.3241 5.93665 31.2232 6.0772 31.5406C6.23524 31.8932 7.00793 30.8177 7.78061 29.5836C7.67525 30.8001 7.605 32.2282 7.78061 32.6513C7.97378 33.092 9.02744 31.7169 9.94061 30.2007C22.3914 27.3093 33.7533 35.9481 34.9475 48.1482C34.7192 46.2441 32.3836 45.1863 31.3124 45.4508C30.7855 46.7554 29.8899 48.4302 28.4499 49.4704C28.5728 48.3068 28.5202 47.108 28.2743 45.9444C27.888 47.5664 27.1328 49.0826 26.0967 50.3872C24.4284 50.5106 22.7601 49.6996 21.8821 48.4831C21.8399 48.4514 21.8167 48.4006 21.7936 48.3499C21.7781 48.316 21.7627 48.2822 21.7416 48.2539C21.6889 48.1305 21.6362 48.0071 21.6011 47.8837C21.5484 47.7603 21.5133 47.6369 21.4957 47.5135C21.4782 47.3901 21.4782 47.2667 21.4782 47.1256C21.4782 47.0375 21.4782 46.9493 21.4782 46.8612C21.4958 46.7377 21.5308 46.6143 21.566 46.4909C21.6011 46.3675 21.6362 46.2441 21.6889 46.1207C21.7123 46.0795 21.7338 46.0383 21.7553 45.9971C21.7982 45.9149 21.8411 45.8327 21.8996 45.7505C22.1982 44.9042 22.1982 44.2166 21.6538 43.8112C21.5484 43.7406 21.443 43.6877 21.3201 43.6348C21.2849 43.626 21.2454 43.6128 21.2059 43.5995C21.1664 43.5863 21.1269 43.5731 21.0918 43.5643C21.0655 43.5555 21.0435 43.5467 21.0216 43.5378C20.9996 43.529 20.9777 43.5202 20.9513 43.5114L20.9496 43.5109C20.8272 43.4758 20.7049 43.4408 20.5826 43.4233C20.4596 43.388 20.3367 43.3704 20.2138 43.3704C20.0908 43.3527 19.9503 43.3351 19.8274 43.3351C19.7835 43.3351 19.7396 43.3395 19.6957 43.344C19.6518 43.3484 19.6079 43.3528 19.564 43.3528C19.4235 43.3528 19.3006 43.3705 19.1777 43.4057L19.175 43.4061C19.0529 43.4236 18.9309 43.4412 18.8089 43.4762C18.686 43.5115 18.563 43.5468 18.4401 43.5996C18.3786 43.6261 18.3216 43.6525 18.2645 43.679C18.2074 43.7054 18.1503 43.7319 18.0889 43.7583C18.0478 43.7789 18.0068 43.8022 17.9647 43.8261C17.8987 43.8635 17.8302 43.9023 17.7552 43.9346C13.6635 46.6144 16.1045 52.8907 18.8967 54.7066C17.843 54.9005 16.7718 55.1298 16.4733 55.3589C16.4557 55.3766 16.4382 55.3942 16.4382 55.3942C17.1933 55.8526 17.9835 56.2404 18.8089 56.5754C19.9328 56.9456 21.127 57.2806 21.6538 57.4216V57.4393C23.1114 57.739 24.5865 57.8448 26.0792 57.7566C33.8587 57.2101 40.2333 51.2687 41.3924 43.441C41.4099 43.5203 41.4275 43.5952 41.445 43.6702C41.4626 43.7451 41.4802 43.82 41.4977 43.8993C41.5131 43.9916 41.5298 44.0853 41.5468 44.1801C41.5883 44.4114 41.6309 44.649 41.6558 44.8866C41.6558 44.8866 41.6558 44.8866 41.6558 44.9043C41.687 45.0455 41.7044 45.1866 41.7202 45.3154C41.7222 45.3313 41.7241 45.3471 41.726 45.3627C41.726 45.3979 41.726 45.4156 41.726 45.4332C41.7437 45.5919 41.7611 45.7506 41.7611 45.8916C41.7787 46.0856 41.7962 46.2795 41.7962 46.4734C41.7962 46.5616 41.7962 46.6497 41.7962 46.7555C41.7962 46.7996 41.8006 46.8481 41.805 46.8965C41.8094 46.945 41.8138 46.9935 41.8138 47.0376C41.8138 47.0905 41.8094 47.1434 41.805 47.1963C41.8006 47.2491 41.7962 47.302 41.7962 47.3549C41.7962 47.4431 41.7962 47.5312 41.7962 47.6017C41.7962 47.6635 41.7918 47.7208 41.7874 47.7781C41.783 47.8354 41.7786 47.8926 41.7786 47.9544C41.7786 48.0249 41.7786 48.0954 41.761 48.1835C41.761 48.2432 41.7569 48.3028 41.7527 48.3645C41.7482 48.4304 41.7435 48.4985 41.7435 48.5714C41.7259 48.6243 41.7259 48.6772 41.7259 48.7301C41.717 48.8007 41.7083 48.8669 41.6995 48.9332C41.6907 48.9992 41.682 49.0652 41.6732 49.1356C41.6732 49.1885 41.6732 49.2414 41.6556 49.2943C41.6468 49.3823 41.6336 49.466 41.6205 49.5497C41.6073 49.6335 41.5941 49.7173 41.5853 49.8055V49.8409C41.5678 49.9201 41.5502 50.0038 41.5327 50.0875C41.5151 50.1713 41.4975 50.2551 41.4799 50.3345C41.4799 50.3521 41.4799 50.3697 41.4799 50.3874C41.4449 50.546 41.4097 50.7047 41.3746 50.8634C41.3746 50.8722 41.3702 50.8855 41.3658 50.8987C41.3614 50.9119 41.357 50.9251 41.357 50.9339C41.3219 51.0926 41.2867 51.2513 41.2341 51.41C41.2341 51.4276 41.2341 51.4452 41.2341 51.4628C41.2217 51.5042 41.2093 51.5447 41.1972 51.5844C41.1576 51.7137 41.1205 51.8351 41.0936 51.9565C41.076 51.9741 41.076 51.9917 41.076 51.9917C41.0233 52.168 40.9706 52.3443 40.918 52.5206C40.8828 52.6089 40.852 52.6927 40.8213 52.7765C40.7906 52.8602 40.7599 52.9438 40.7248 53.0319C40.695 53.1068 40.6683 53.1816 40.6421 53.2551C40.6066 53.3547 40.572 53.4519 40.5316 53.5432C40.4966 53.6312 40.4615 53.7148 40.4264 53.7983C40.3913 53.8822 40.3561 53.9661 40.3209 54.0544H40.3033C40.2869 54.0915 40.2705 54.1295 40.2539 54.168C40.1993 54.2944 40.1423 54.4265 40.075 54.5481C40.0574 54.601 40.0399 54.6362 40.0223 54.6715C40.0135 54.6804 40.0091 54.6892 40.0047 54.698C40.0003 54.7068 39.9959 54.7156 39.9872 54.7244C38.8457 57.0339 37.1599 59.0614 35.0526 60.6481C34.9121 60.7363 34.7716 60.842 34.6311 60.9478C34.6136 60.9654 34.5916 60.9787 34.5697 60.9919C34.5477 61.0051 34.5257 61.0183 34.5082 61.036C34.3852 61.1241 34.2623 61.2123 34.1218 61.3004L34.1745 61.4062H34.1921C34.4379 61.371 34.6838 61.3357 34.9297 61.3004H34.9473C35.4038 61.2299 35.8604 61.1418 36.317 61.0536C36.4399 61.0359 36.5804 61.0007 36.7034 60.9655C36.7472 60.9566 36.7866 60.9478 36.826 60.9391C36.8656 60.9302 36.9052 60.9214 36.9492 60.9126C37.0106 60.9037 37.0721 60.8905 37.1335 60.8773C37.195 60.8641 37.2565 60.8509 37.318 60.842C37.3706 60.8244 37.4233 60.8112 37.4759 60.798C37.5286 60.7848 37.5814 60.7715 37.6341 60.7539C39.3902 60.3307 41.0936 59.7489 42.7268 59.0614C39.9346 62.8871 36.1941 65.9724 31.8214 67.9999C33.8409 67.8588 35.8604 67.5238 37.8097 66.9597C44.8868 64.8617 50.84 60.0839 54.4048 53.6489C53.6848 57.7215 52.0692 61.6001 49.6809 64.9851C51.3843 63.8568 52.9473 62.5521 54.3697 61.0712C58.3034 56.9458 60.8848 51.7096 61.7629 46.0856C62.36 48.8711 62.5356 51.7449 62.2722 54.5833C74.9512 36.8298 63.3258 18.4239 58.4614 13.5756C58.4567 13.5663 58.4521 13.5581 58.4477 13.5506C58.4358 13.5298 58.4263 13.5134 58.4263 13.4875C58.4087 13.5051 58.4087 13.5051 58.4087 13.5227C58.4087 13.505 58.4087 13.505 58.3911 13.4875C58.3911 13.6981 58.3737 13.9087 58.3563 14.1194L58.356 14.1221C58.3034 14.5276 58.2507 14.9155 58.1804 15.3034C58.0926 15.6912 57.9873 16.0791 57.8819 16.467C57.759 16.8372 57.6185 17.225 57.4604 17.5953C57.3024 17.9479 57.1268 18.3181 56.9336 18.6707C56.7404 19.0057 56.5297 19.3583 56.3014 19.6756C56.0731 20.0106 55.8273 20.328 55.5814 20.6277C55.318 20.945 55.037 21.2271 54.756 21.5092C54.5804 21.6678 54.4224 21.8089 54.2468 21.9499C54.1761 22.012 54.1099 22.0696 54.0436 22.1273C53.9782 22.1842 53.9127 22.2412 53.8429 22.3025C53.5268 22.5493 53.2107 22.7785 52.8594 22.9901C52.5258 23.2017 52.1746 23.4132 51.8233 23.5895C51.4546 23.7658 51.0858 23.9245 50.717 24.0832C50.3482 24.2242 49.9619 24.3476 49.5755 24.4534C49.1892 24.5592 48.7853 24.6473 48.399 24.7179C48.013 24.7853 47.627 24.8204 47.2563 24.8542C47.2391 24.8558 47.2219 24.8573 47.2048 24.8589C46.9238 24.8766 46.6429 24.8941 46.3619 24.8941C45.958 24.8941 45.5541 24.8589 45.1677 24.8236C44.7638 24.7884 44.3599 24.7354 43.9736 24.6473C43.5697 24.5767 43.1833 24.471 42.797 24.3476H42.7794C43.1657 24.3123 43.5521 24.277 43.9384 24.2065C44.3423 24.136 44.7287 24.0479 45.115 23.9421C45.5014 23.8363 45.8877 23.7129 46.2565 23.5718C46.6428 23.4308 47.0116 23.2545 47.3628 23.0782C47.7316 22.9019 48.0653 22.708 48.4165 22.4964C48.7501 22.2672 49.0838 22.038 49.3999 21.7912C49.716 21.5444 50.0145 21.2799 50.2955 20.9978C50.5941 20.7334 50.8575 20.4337 51.1209 20.134C51.3843 19.8166 51.6302 19.4993 51.8584 19.1819C51.876 19.1555 51.8936 19.1246 51.9111 19.0938C51.9287 19.0629 51.9463 19.0321 51.9638 19.0056C52.1394 18.7236 52.315 18.4415 52.4731 18.1594C52.6662 17.8068 52.8419 17.4542 52.9999 17.084C53.158 16.7137 53.2985 16.3435 53.4214 15.9556C53.5443 15.5854 53.6321 15.1975 53.7199 14.8097C53.7255 14.7777 53.731 14.7458 53.7365 14.714C53.801 14.343 53.8632 13.9857 53.8955 13.6284L53.8958 13.6257C53.9308 13.2212 53.9658 12.8165 53.9658 12.4296C53.9658 12.1497 53.9485 11.8698 53.9311 11.5899C53.931 11.5877 53.9308 11.5855 53.9307 11.5833C53.8957 11.1785 53.8431 10.7912 53.7905 10.404L53.7902 10.4021C53.7199 9.99664 53.6322 9.60877 53.5268 9.2209C53.5024 9.14738 53.478 9.07315 53.4534 8.99851C53.3544 8.69731 53.253 8.38928 53.1405 8.09258C53 7.72234 52.8244 7.35211 52.6487 6.9995C52.4556 6.6469 52.2624 6.2943 52.0517 5.95933C51.8234 5.62436 51.5951 5.30702 51.3492 4.98967C51.0858 4.68996 50.8224 4.39025 50.5414 4.09053C50.4009 3.9495 50.2429 3.79082 50.0848 3.64979C49.2946 3.03273 48.4692 2.45093 47.6439 1.92203C47.5209 1.85148 47.4156 1.79862 47.2926 1.74572C46.7131 1.3755 46.1687 1.18146 45.6243 1.00516Z" fill="#E0234E"/>
<path fill-rule="evenodd" clip-rule="evenodd" d="M40.0399 0.000244141C39.5482 0.000244141 39.0916 0.106027 38.6702 0.247065C39.5658 0.846488 40.0575 1.63985 40.3033 2.53898C40.3121 2.60066 40.3253 2.65353 40.3385 2.70639C40.3516 2.75931 40.3648 2.81222 40.3736 2.87395C40.3912 2.97974 40.4087 3.08552 40.4087 3.1913C40.4584 4.28812 40.236 4.70645 39.9834 5.18137C39.8788 5.37823 39.7689 5.5848 39.6711 5.85345C39.1619 7.03467 39.3023 8.30404 39.917 9.3266C39.9697 9.45 40.0399 9.59104 40.1277 9.71446C39.6584 6.57745 41.3519 5.31531 42.6365 4.35801C43.1784 3.95415 43.6475 3.60454 43.8507 3.1913C43.9033 1.97482 42.9024 1.16383 42.1121 0.599667C41.357 0.141284 40.6721 0.000244141 40.0399 0.000244141ZM45.5896 1.37029C45.5926 1.40355 45.5957 1.43841 45.5892 1.51644C45.5804 1.58708 45.576 1.66657 45.5716 1.74605C45.5672 1.82524 45.5629 1.90442 45.5541 1.97482C45.519 2.11586 45.4839 2.2569 45.4312 2.39795C45.3961 2.53899 45.3434 2.68003 45.2907 2.82106C45.2555 2.8917 45.2247 2.95792 45.194 3.02414C45.1633 3.09014 45.1326 3.15615 45.0975 3.22656C45.0712 3.26182 45.0493 3.29706 45.0273 3.33229C45.0054 3.36757 44.9834 3.40284 44.9571 3.43812L44.8517 3.59679C44.7639 3.72021 44.6761 3.84362 44.5883 3.9494C44.5532 3.98466 44.52 4.02188 44.4868 4.0591C44.4205 4.13354 44.3541 4.20797 44.2722 4.26674V4.2844C44.2357 4.31488 44.1993 4.34748 44.1621 4.38072C44.0918 4.4436 44.0189 4.50881 43.9385 4.56647C43.7246 4.73009 43.493 4.86998 43.2608 5.01022C43.0926 5.11177 42.9242 5.21351 42.7619 5.32457C42.7285 5.34855 42.695 5.37123 42.662 5.39367C42.5734 5.4537 42.4874 5.51203 42.4107 5.58903C42.2878 5.67718 42.1824 5.76532 42.0771 5.8711C41.9624 5.96976 41.8783 6.06843 41.782 6.1814L41.7609 6.20607C41.7543 6.21412 41.7475 6.22228 41.7406 6.23053C41.6573 6.33064 41.5624 6.44466 41.4975 6.55868C41.4097 6.68209 41.3219 6.8055 41.2517 6.92891C41.2165 6.99953 41.1857 7.06573 41.155 7.13194C41.1243 7.19796 41.0936 7.26398 41.0585 7.3344C41.047 7.3651 41.0356 7.39497 41.0243 7.42437C40.9837 7.53001 40.9455 7.62956 40.918 7.73989C40.8653 7.89857 40.8302 8.03961 40.7951 8.18065C40.7863 8.21599 40.7819 8.25573 40.7775 8.29546C40.7731 8.33506 40.7688 8.37464 40.76 8.40984C40.7512 8.44524 40.7468 8.48062 40.7424 8.516C40.738 8.55114 40.7336 8.58627 40.7249 8.6214C40.7249 8.69192 40.7205 8.76685 40.7161 8.84178C40.7117 8.91671 40.7073 8.99164 40.7073 9.06216C40.7073 9.16794 40.7073 9.27372 40.7249 9.37951C40.7249 9.52054 40.7425 9.66159 40.7776 9.82026C40.7952 9.9613 40.8303 10.1023 40.8654 10.2434C40.8918 10.3139 40.9137 10.3845 40.9357 10.455C40.9576 10.5255 40.9795 10.596 41.0059 10.6665C41.0299 10.7268 41.0621 10.787 41.0913 10.8417C41.1048 10.867 41.1177 10.891 41.1288 10.9133L37.0898 9.34424C36.4049 9.15031 35.7376 8.97401 35.0527 8.81534L33.9464 8.55088C32.8927 8.33932 31.8215 8.18065 30.7503 8.07487C30.7327 8.07487 30.7196 8.07046 30.7064 8.06605C30.6932 8.06163 30.68 8.05722 30.6625 8.05722C29.6088 7.95144 28.5727 7.89855 27.519 7.89855C26.7464 7.89855 25.9737 7.93378 25.2185 7.9867C24.1473 8.05725 23.0761 8.19826 22.0049 8.37456C21.7419 8.40973 21.479 8.46252 21.2161 8.51531L21.2146 8.51561C20.6702 8.62138 20.1434 8.7448 19.6341 8.86821L18.8439 9.07977C18.6877 9.14249 18.5377 9.21142 18.3902 9.2792C18.2889 9.32572 18.1888 9.37169 18.0888 9.41475L17.5093 9.6792C17.4938 9.68696 17.4784 9.69131 17.4645 9.69524C17.4467 9.70025 17.4313 9.70458 17.4215 9.71444C17.3616 9.7445 17.3037 9.7725 17.2472 9.79986C17.1381 9.85273 17.0339 9.90316 16.9298 9.96126C16.8771 9.97891 16.8419 9.99649 16.8068 10.0142C16.6137 10.1023 16.4205 10.2081 16.2624 10.2962C16.1791 10.3321 16.0957 10.3761 16.0178 10.4172C15.9808 10.4367 15.9451 10.4555 15.9112 10.4725C15.8585 10.5078 15.7883 10.5431 15.7532 10.5607C15.5951 10.6488 15.4371 10.737 15.2966 10.8251C15.1385 10.9133 14.998 11.0014 14.8751 11.0896C14.8289 11.1227 14.7827 11.1534 14.7374 11.1834C14.6622 11.2333 14.5896 11.2814 14.5239 11.3364C14.5151 11.3452 14.5063 11.3497 14.4975 11.3541C14.4887 11.3585 14.48 11.3629 14.4712 11.3716C14.3658 11.4422 14.2429 11.5303 14.1376 11.6185L14.1025 11.6537L13.839 11.8652C13.8215 11.8741 13.8039 11.8873 13.7863 11.9005C13.7688 11.9137 13.7512 11.927 13.7337 11.9358C13.6898 11.971 13.6459 12.0107 13.6021 12.0503C13.5581 12.09 13.5142 12.1297 13.4703 12.165C13.458 12.1896 13.4372 12.2056 13.4198 12.219C13.4123 12.2248 13.4053 12.2302 13.4 12.2355C13.3473 12.2884 13.2946 12.3369 13.242 12.3854C13.1893 12.4339 13.1366 12.4824 13.0839 12.5353C13.073 12.5353 13.0689 12.542 13.0631 12.5513C13.0596 12.5571 13.0555 12.5638 13.0488 12.5705C12.9434 12.6586 12.8381 12.7644 12.7327 12.8702C12.726 12.877 12.7218 12.8837 12.7183 12.8894C12.7125 12.8987 12.7084 12.9054 12.6976 12.9054C12.6098 12.9936 12.522 13.0817 12.4342 13.1875C12.4166 13.2051 12.3946 13.2228 12.3727 13.2404C12.3507 13.2581 12.3288 13.2757 12.3113 13.2933C12.2235 13.3991 12.1181 13.5049 12.0127 13.6106C12.0039 13.6282 11.9908 13.6415 11.9776 13.6547C11.9644 13.6679 11.9513 13.6812 11.9425 13.6988C11.8722 13.7693 11.8064 13.8398 11.7405 13.9103C11.6747 13.9809 11.6088 14.0514 11.5386 14.1219L11.4859 14.1748C11.2049 14.4745 10.9063 14.7742 10.5903 15.0387C10.2742 15.3208 9.94051 15.5852 9.60684 15.8144C9.25562 16.0612 8.92197 16.2728 8.55318 16.4844C8.20196 16.6783 7.83318 16.8546 7.44684 17.0133C7.07806 17.1719 6.69172 17.313 6.30538 17.4364C6.02091 17.4976 5.73384 17.5797 5.45121 17.6606C5.00102 17.7895 4.5621 17.9152 4.16294 17.9476C4.06646 17.9476 3.96169 17.9643 3.86002 17.9804C3.81365 17.9878 3.76792 17.995 3.72391 18.0005C3.5688 18.0351 3.43061 18.0698 3.29274 18.1044L3.28489 18.1063L2.86342 18.265C2.72293 18.3179 2.58245 18.3884 2.44196 18.4589C2.3805 18.503 2.31465 18.5427 2.2488 18.5823C2.18294 18.622 2.11708 18.6617 2.05561 18.7057C1.93269 18.7939 1.80976 18.8997 1.70439 19.0055C1.58147 19.0936 1.45854 19.217 1.35317 19.3228C1.31931 19.3625 1.28544 19.4003 1.25216 19.4375C1.18189 19.516 1.11422 19.5917 1.05464 19.6754C1.02068 19.7299 0.984089 19.7819 0.947922 19.8332C0.890581 19.9145 0.834297 19.9944 0.79122 20.0809C0.703417 20.2043 0.615614 20.3454 0.545366 20.4864C0.528666 20.5241 0.511969 20.5608 0.495508 20.597C0.442709 20.7131 0.392359 20.8238 0.352196 20.9448C0.299512 21.0858 0.24683 21.2445 0.194147 21.4032L0.193661 21.4051C0.158731 21.5455 0.123789 21.6859 0.106342 21.8263C0.106342 21.8351 0.101942 21.8439 0.0975437 21.8527C0.0931492 21.8615 0.0887547 21.8703 0.0887547 21.8792C0.0674667 21.9754 0.0590935 22.0911 0.0518723 22.1909C0.0471897 22.2556 0.0429916 22.3136 0.0360718 22.3552C0.0341434 22.3687 0.032217 22.382 0.0303135 22.3952C0.0148563 22.502 0.000976563 22.5979 0.000976563 22.7078C0.000976563 22.7784 0.000976203 22.8665 0.0185642 22.937C0.0361522 23.0604 0.0536589 23.1662 0.0888367 23.272C0.123931 23.3777 0.159109 23.4835 0.21176 23.5893V23.607C0.264443 23.7127 0.334691 23.8185 0.40493 23.9243L0.405525 23.9252C0.475599 24.0307 0.545673 24.1362 0.633228 24.2416C0.721031 24.3298 0.826398 24.4356 0.931765 24.5237C1.03713 24.6295 1.1425 24.7177 1.26542 24.8058C1.31957 24.8534 1.36851 24.8969 1.41383 24.9372C1.72121 25.2104 1.86221 25.3357 2.33665 25.5815C2.39401 25.6161 2.45138 25.6431 2.51364 25.6725C2.54668 25.688 2.58109 25.7042 2.61762 25.7226C2.62642 25.7226 2.63519 25.727 2.64397 25.7314C2.65274 25.7358 2.66152 25.7402 2.67031 25.7402C2.67031 25.7755 2.67031 25.7931 2.6879 25.8284C2.70549 25.9694 2.74058 26.1105 2.7757 26.2515C2.8108 26.4102 2.86351 26.5512 2.9162 26.6746C2.94254 26.7275 2.96449 26.7804 2.98644 26.8333C3.00839 26.8862 3.03034 26.9391 3.05668 26.992L3.05738 26.9934C3.07473 27.0281 3.09201 27.0628 3.10937 27.0801C3.17964 27.2212 3.24985 27.3446 3.32009 27.468L3.58351 27.8382C3.67131 27.944 3.77668 28.0674 3.88204 28.1732C3.97406 28.2656 4.06608 28.3445 4.16979 28.4335C4.18484 28.4464 4.20013 28.4595 4.21571 28.4729C4.21571 28.4729 4.2333 28.4906 4.2508 28.4906C4.35617 28.5787 4.46153 28.6669 4.5669 28.7374C4.68982 28.8256 4.81276 28.8961 4.95324 28.9666C5.07617 29.0371 5.21666 29.1076 5.35714 29.1605C5.46251 29.2134 5.58543 29.2487 5.70836 29.2839C5.71928 29.2949 5.73016 29.2991 5.74525 29.3049C5.75448 29.3084 5.76528 29.3125 5.77863 29.3192C5.81384 29.328 5.85345 29.3369 5.89304 29.3457C5.93246 29.3545 5.97188 29.3633 6.00692 29.3721C5.95424 30.3241 5.93665 31.2232 6.0772 31.5406C6.23524 31.8932 7.00793 30.8177 7.78061 29.5836C7.67525 30.8001 7.605 32.2282 7.78061 32.6513C7.97378 33.092 9.02744 31.7169 9.94061 30.2007C22.3914 27.3093 33.7533 35.9481 34.9475 48.1482C34.7192 46.2441 32.3836 45.1863 31.3124 45.4508C30.7855 46.7554 29.8899 48.4302 28.4499 49.4704C28.5728 48.3068 28.5202 47.108 28.2743 45.9444C27.888 47.5664 27.1328 49.0826 26.0967 50.3872C24.4284 50.5106 22.7601 49.6996 21.8821 48.4831C21.8399 48.4514 21.8167 48.4006 21.7936 48.3499C21.7781 48.316 21.7627 48.2822 21.7416 48.2539C21.6889 48.1305 21.6362 48.0071 21.6011 47.8837C21.5484 47.7603 21.5133 47.6369 21.4957 47.5135C21.4782 47.3901 21.4782 47.2667 21.4782 47.1256V46.8612C21.4958 46.7377 21.5308 46.6143 21.566 46.4909C21.6011 46.3675 21.6362 46.2441 21.6889 46.1207C21.7123 46.0795 21.7338 46.0383 21.7553 45.9971C21.7982 45.9149 21.8411 45.8327 21.8996 45.7505C22.1982 44.9042 22.1982 44.2166 21.6538 43.8112C21.5484 43.7406 21.443 43.6877 21.3201 43.6348C21.2849 43.626 21.2454 43.6128 21.2059 43.5995C21.1664 43.5863 21.1269 43.5731 21.0918 43.5643C21.0655 43.5555 21.0435 43.5467 21.0216 43.5378C20.9996 43.529 20.9777 43.5202 20.9513 43.5114L20.9496 43.5109C20.8272 43.4758 20.7049 43.4408 20.5826 43.4233C20.4596 43.388 20.3367 43.3704 20.2138 43.3704C20.0908 43.3527 19.9503 43.3351 19.8274 43.3351C19.7835 43.3351 19.7396 43.3395 19.6957 43.344C19.6518 43.3484 19.6079 43.3528 19.564 43.3528C19.4235 43.3528 19.3006 43.3705 19.1777 43.4057L19.175 43.4061C19.0529 43.4236 18.9309 43.4412 18.8089 43.4762C18.686 43.5115 18.563 43.5468 18.4401 43.5996C18.3786 43.6261 18.3216 43.6525 18.2645 43.679C18.2074 43.7054 18.1503 43.7319 18.0889 43.7583C18.0478 43.7789 18.0068 43.8022 17.9647 43.8261C17.8987 43.8635 17.8302 43.9023 17.7552 43.9346C13.6635 46.6144 16.1045 52.8907 18.8967 54.7066C17.843 54.9005 16.7718 55.1298 16.4733 55.3589L16.4382 55.3942C17.1933 55.8526 17.9835 56.2404 18.8089 56.5754C19.9328 56.9456 21.127 57.2806 21.6538 57.4216V57.4393C23.1114 57.739 24.5865 57.8448 26.0792 57.7566C33.8587 57.2101 40.2333 51.2687 41.3924 43.441C41.4099 43.5203 41.4275 43.5952 41.445 43.6702C41.4626 43.7451 41.4802 43.82 41.4977 43.8993C41.5131 43.9916 41.5298 44.0853 41.5468 44.1801C41.5883 44.4114 41.6309 44.649 41.6558 44.8866V44.9043C41.687 45.0455 41.7044 45.1866 41.7202 45.3154C41.7222 45.3313 41.7241 45.3471 41.726 45.3627V45.4332C41.7437 45.5919 41.7611 45.7506 41.7611 45.8916C41.7787 46.0856 41.7962 46.2795 41.7962 46.4734V46.7555C41.7962 46.7996 41.8006 46.8481 41.805 46.8965C41.8094 46.945 41.8138 46.9935 41.8138 47.0376C41.8138 47.0905 41.8094 47.1434 41.805 47.1963C41.8006 47.2491 41.7962 47.302 41.7962 47.3549V47.6017C41.7962 47.6635 41.7918 47.7208 41.7874 47.7781C41.783 47.8354 41.7786 47.8926 41.7786 47.9544C41.7786 48.0249 41.7786 48.0954 41.761 48.1835C41.761 48.2432 41.7569 48.3028 41.7527 48.3645C41.7482 48.4304 41.7435 48.4985 41.7435 48.5714C41.7259 48.6243 41.7259 48.6772 41.7259 48.7301C41.717 48.8007 41.7083 48.8669 41.6995 48.9332C41.6907 48.9992 41.682 49.0652 41.6732 49.1356C41.6732 49.1885 41.6732 49.2414 41.6556 49.2943C41.6468 49.3823 41.6336 49.466 41.6205 49.5497C41.6073 49.6335 41.5941 49.7173 41.5853 49.8055V49.8409C41.5678 49.9201 41.5502 50.0038 41.5327 50.0875C41.5151 50.1713 41.4975 50.2551 41.4799 50.3345V50.3874L41.3746 50.8634C41.3746 50.8722 41.3702 50.8855 41.3658 50.8987C41.3614 50.9119 41.357 50.9251 41.357 50.9339C41.3219 51.0926 41.2867 51.2513 41.2341 51.41V51.4628C41.2217 51.5042 41.2093 51.5447 41.1972 51.5844C41.1576 51.7137 41.1205 51.8351 41.0936 51.9565C41.076 51.9741 41.076 51.9917 41.076 51.9917L40.918 52.5206C40.8828 52.6089 40.852 52.6927 40.8213 52.7765C40.7906 52.8602 40.7599 52.9438 40.7248 53.0319C40.695 53.1068 40.6683 53.1816 40.6421 53.2551C40.6066 53.3547 40.572 53.4519 40.5316 53.5432C40.4966 53.6312 40.4615 53.7148 40.4264 53.7983C40.3913 53.8822 40.3561 53.9661 40.3209 54.0544H40.3033C40.2869 54.0915 40.2705 54.1295 40.2539 54.168C40.1993 54.2944 40.1423 54.4265 40.075 54.5481C40.0574 54.601 40.0399 54.6362 40.0223 54.6715C40.0135 54.6804 40.0091 54.6892 40.0047 54.698C40.0003 54.7068 39.9959 54.7156 39.9872 54.7244C38.8457 57.0339 37.1599 59.0614 35.0526 60.6481C34.9121 60.7363 34.7716 60.842 34.6311 60.9478C34.6136 60.9654 34.5916 60.9787 34.5697 60.9919C34.5477 61.0051 34.5257 61.0183 34.5082 61.036C34.3852 61.1241 34.2623 61.2123 34.1218 61.3004L34.1745 61.4062H34.1921L34.9297 61.3004H34.9473C35.4038 61.2299 35.8604 61.1418 36.317 61.0536C36.4399 61.0359 36.5804 61.0007 36.7034 60.9655C36.7472 60.9566 36.7866 60.9478 36.826 60.9391C36.8656 60.9302 36.9052 60.9214 36.9492 60.9126C37.0106 60.9037 37.0721 60.8905 37.1335 60.8773C37.195 60.8641 37.2565 60.8509 37.318 60.842C37.3706 60.8244 37.4233 60.8112 37.4759 60.798C37.5286 60.7848 37.5814 60.7715 37.6341 60.7539C39.3902 60.3307 41.0936 59.7489 42.7268 59.0614C39.9346 62.8871 36.1941 65.9724 31.8214 67.9999C33.8409 67.8588 35.8604 67.5238 37.8097 66.9597C44.8868 64.8617 50.84 60.0839 54.4048 53.6489C53.6848 57.7215 52.0692 61.6001 49.6809 64.9851C51.3843 63.8568 52.9473 62.5521 54.3697 61.0712C58.3034 56.9458 60.8848 51.7096 61.7629 46.0856C62.36 48.8711 62.5356 51.7449 62.2722 54.5833C74.9512 36.8298 63.3258 18.4239 58.4614 13.5756C58.4567 13.5663 58.4521 13.5581 58.4477 13.5506C58.4358 13.5298 58.4263 13.5134 58.4263 13.4875C58.4087 13.5051 58.4087 13.5051 58.4087 13.5227C58.4087 13.505 58.4087 13.505 58.3911 13.4875C58.3911 13.6981 58.3737 13.9087 58.3563 14.1194L58.356 14.1221C58.3034 14.5276 58.2507 14.9155 58.1804 15.3034C58.0926 15.6912 57.9873 16.0791 57.8819 16.467C57.759 16.8372 57.6185 17.225 57.4604 17.5953C57.3024 17.9479 57.1268 18.3181 56.9336 18.6707C56.7404 19.0057 56.5297 19.3583 56.3014 19.6756C56.0731 20.0106 55.8273 20.328 55.5814 20.6277C55.318 20.945 55.037 21.2271 54.756 21.5092C54.5804 21.6678 54.4224 21.8089 54.2468 21.9499C54.1761 22.012 54.1099 22.0696 54.0436 22.1273C53.9782 22.1842 53.9127 22.2412 53.8429 22.3025C53.5268 22.5493 53.2107 22.7785 52.8594 22.9901C52.5258 23.2017 52.1746 23.4132 51.8233 23.5895C51.4546 23.7658 51.0858 23.9245 50.717 24.0832C50.3482 24.2242 49.9619 24.3476 49.5755 24.4534C49.1892 24.5592 48.7853 24.6473 48.399 24.7179C48.013 24.7853 47.627 24.8204 47.2563 24.8542L47.2048 24.8589C46.9238 24.8766 46.6429 24.8941 46.3619 24.8941C45.958 24.8941 45.5541 24.8589 45.1677 24.8236C44.7638 24.7884 44.3599 24.7354 43.9736 24.6473C43.5697 24.5767 43.1833 24.471 42.797 24.3476H42.7794C43.1657 24.3123 43.5521 24.277 43.9384 24.2065C44.3423 24.136 44.7287 24.0479 45.115 23.9421C45.5014 23.8363 45.8877 23.7129 46.2565 23.5718C46.6428 23.4308 47.0116 23.2545 47.3628 23.0782C47.7316 22.9019 48.0653 22.708 48.4165 22.4964C48.7501 22.2672 49.0838 22.038 49.3999 21.7912C49.716 21.5444 50.0145 21.2799 50.2955 20.9978C50.5941 20.7334 50.8575 20.4337 51.1209 20.134C51.3843 19.8166 51.6302 19.4993 51.8584 19.1819C51.876 19.1555 51.8936 19.1246 51.9111 19.0938C51.9287 19.0629 51.9463 19.0321 51.9638 19.0056C52.1394 18.7236 52.315 18.4415 52.4731 18.1594C52.6662 17.8068 52.8419 17.4542 52.9999 17.084C53.158 16.7137 53.2985 16.3435 53.4214 15.9556C53.5443 15.5854 53.6321 15.1975 53.7199 14.8097C53.7255 14.7777 53.731 14.7458 53.7365 14.714C53.801 14.343 53.8632 13.9857 53.8955 13.6284L53.8958 13.6257C53.9308 13.2212 53.9658 12.8165 53.9658 12.4296C53.9658 12.1497 53.9485 11.8698 53.9311 11.5899L53.9307 11.5833C53.8957 11.1785 53.8431 10.7912 53.7905 10.404L53.7902 10.4021C53.7199 9.99664 53.6322 9.60877 53.5268 9.2209C53.5024 9.14738 53.478 9.07315 53.4534 8.99851C53.3544 8.69731 53.253 8.38928 53.1405 8.09258C53 7.72234 52.8244 7.35211 52.6487 6.9995C52.4556 6.6469 52.2624 6.2943 52.0517 5.95933C51.8234 5.62436 51.5951 5.30702 51.3492 4.98967C51.0858 4.68996 50.8224 4.39025 50.5414 4.09053C50.4009 3.9495 50.2429 3.79082 50.0848 3.64979C49.2946 3.03273 48.4692 2.45093 47.6439 1.92203C47.5209 1.85148 47.4156 1.79862 47.2926 1.74572C46.7131 1.3755 46.1687 1.18146 45.6243 1.00516C45.58 1.2611 45.5846 1.31336 45.5896 1.37029Z" fill="#E0234E"/>
</svg>
