<svg width="100" height="100" viewBox="0 0 100 100" fill="none" xmlns="http://www.w3.org/2000/svg">
<path d="M-0.000976562 -0.000244141L100.001 4.03706e-05V99.9998H0.00105396L-0.000976562 -0.000244141Z" fill="white"/>
<path d="M56.04 16.0002C55.5483 16.0002 55.0917 16.106 54.6703 16.247C55.5659 16.8465 56.0576 17.6398 56.3034 18.539C56.321 18.6624 56.3561 18.7505 56.3737 18.8739C56.3913 18.9797 56.4088 19.0855 56.4088 19.1913C56.4791 20.7427 56.0049 20.9367 55.6712 21.8534C55.162 23.0347 55.3024 24.304 55.9171 25.3266C55.9698 25.45 56.04 25.591 56.1278 25.7144C55.4605 21.254 59.1659 20.5841 59.8507 19.1913C59.9034 17.9748 58.9025 17.1638 58.1122 16.5997C57.3571 16.1413 56.6722 16.0002 56.04 16.0002ZM61.6244 17.0051C61.5541 17.4106 61.6068 17.3049 61.5893 17.5164C61.5717 17.6575 61.5717 17.8338 61.5542 17.9748C61.5191 18.1158 61.4839 18.2569 61.4313 18.3979C61.3962 18.539 61.3435 18.68 61.2908 18.821C61.2205 18.9621 61.1679 19.0855 61.0976 19.2265C61.0449 19.2971 61.0098 19.3676 60.9571 19.4381C60.922 19.491 60.8869 19.5439 60.8518 19.5968C60.764 19.7202 60.6762 19.8436 60.5884 19.9494C60.483 20.0552 60.3952 20.1786 60.2723 20.2667C60.2723 20.2844 60.2723 20.2844 60.2723 20.2844C60.1669 20.3725 60.0615 20.4783 59.9386 20.5665C59.5698 20.8485 59.1484 21.0601 58.762 21.3246C58.6391 21.4127 58.5162 21.4832 58.4108 21.589C58.2879 21.6772 58.1825 21.7653 58.0771 21.8711C57.9542 21.9769 57.8664 22.0826 57.761 22.2061C57.6732 22.3118 57.5679 22.4352 57.4976 22.5587C57.4098 22.6821 57.322 22.8055 57.2518 22.9289C57.1815 23.0699 57.1288 23.1933 57.0586 23.3344C57.0059 23.4754 56.9532 23.5988 56.9181 23.7399C56.8654 23.8986 56.8303 24.0396 56.7952 24.1806C56.7776 24.2512 56.7776 24.3393 56.7601 24.4098C56.7425 24.4804 56.7425 24.5509 56.725 24.6214C56.725 24.7624 56.7074 24.9211 56.7074 25.0621C56.7074 25.1679 56.7074 25.2737 56.725 25.3795C56.725 25.5205 56.7426 25.6616 56.7777 25.8202C56.7953 25.9613 56.8304 26.1023 56.8655 26.2434C56.9182 26.3844 56.9533 26.5255 57.006 26.6665C57.0411 26.7546 57.0938 26.8428 57.1289 26.9133L53.0899 25.3442C52.405 25.1503 51.7377 24.974 51.0528 24.8153C50.684 24.7272 50.3152 24.639 49.9464 24.5509C48.8928 24.3393 47.8216 24.1806 46.7503 24.0749C46.7153 24.0749 46.6977 24.0572 46.6625 24.0572C45.6089 23.9514 44.5728 23.8985 43.5191 23.8985C42.7464 23.8985 41.9738 23.9338 41.2186 23.9867C40.1474 24.0572 39.0762 24.1982 38.005 24.3745C37.7416 24.4098 37.4781 24.4627 37.2147 24.5156C36.6703 24.6214 36.1435 24.7448 35.6342 24.8682C35.3708 24.9387 35.1074 25.0092 34.844 25.0798C34.5806 25.1855 34.3347 25.309 34.0889 25.4147C33.8957 25.5029 33.7025 25.591 33.5094 25.6792C33.4743 25.6968 33.4391 25.6968 33.4215 25.7144C33.2459 25.8026 33.0879 25.8731 32.9298 25.9612C32.8772 25.9789 32.842 25.9965 32.8069 26.0141C32.6137 26.1023 32.4206 26.2081 32.2625 26.2962C32.1396 26.3491 32.0167 26.4196 31.9113 26.4725C31.8586 26.5077 31.7884 26.5431 31.7533 26.5607C31.5952 26.6488 31.4372 26.737 31.2967 26.8251C31.1386 26.9133 30.9981 27.0014 30.8752 27.0896C30.7523 27.1777 30.6293 27.2482 30.524 27.3364C30.5064 27.354 30.4889 27.354 30.4713 27.3716C30.3659 27.4422 30.243 27.5303 30.1376 27.6184C30.1376 27.6184 30.12 27.6361 30.1025 27.6537C30.0147 27.7242 29.9269 27.7947 29.8391 27.8652C29.804 27.8829 29.7689 27.9181 29.7338 27.9358C29.646 28.0063 29.5582 28.0945 29.4704 28.165C29.4528 28.2002 29.4177 28.2179 29.4001 28.2355C29.2947 28.3413 29.1893 28.4295 29.084 28.5352C29.0664 28.5352 29.0664 28.5529 29.0489 28.5705C28.9435 28.6586 28.8382 28.7644 28.7328 28.8702C28.7152 28.8878 28.7152 28.9054 28.6977 28.9054C28.6099 28.9936 28.5221 29.0817 28.4343 29.1875C28.3992 29.2227 28.3465 29.258 28.3113 29.2933C28.2235 29.3991 28.1182 29.5048 28.0128 29.6106C27.9952 29.6459 27.9601 29.6635 27.9425 29.6988C27.8021 29.8398 27.6791 29.9809 27.5386 30.1219C27.521 30.1396 27.5035 30.1571 27.486 30.1748C27.205 30.4745 26.9064 30.7742 26.5903 31.0387C26.2742 31.3207 25.9406 31.5852 25.6069 31.8144C25.2557 32.0612 24.9221 32.2728 24.5533 32.4843C24.2021 32.6783 23.8333 32.8546 23.4469 33.0132C23.0781 33.1719 22.6918 33.313 22.3055 33.4364C21.5679 33.595 20.8128 33.8947 20.163 33.9476C20.0225 33.9476 19.8645 33.9829 19.724 34.0005C19.5659 34.0358 19.4255 34.0711 19.285 34.1063C19.1445 34.1592 19.004 34.2121 18.8635 34.265C18.723 34.3179 18.5825 34.3884 18.442 34.4589C18.3191 34.5471 18.1786 34.6176 18.0557 34.7057C17.9328 34.7939 17.8098 34.8997 17.7045 35.0054C17.5816 35.0936 17.4586 35.217 17.3533 35.3228C17.2479 35.4462 17.1425 35.552 17.0547 35.6754C16.9669 35.8164 16.8616 35.9398 16.7913 36.0809C16.7035 36.2043 16.6157 36.3453 16.5455 36.4864C16.4752 36.645 16.405 36.7861 16.3523 36.9448C16.2996 37.0858 16.2469 37.2445 16.1942 37.4031C16.1591 37.5442 16.124 37.6852 16.1064 37.8263C16.1064 37.8439 16.0888 37.8615 16.0888 37.8792C16.0537 38.0378 16.0537 38.2494 16.0362 38.3552C16.0186 38.4786 16.0011 38.5844 16.0011 38.7078C16.0011 38.7783 16.0011 38.8664 16.0187 38.937C16.0362 39.0604 16.0537 39.1662 16.0889 39.272C16.124 39.3777 16.1592 39.4835 16.2118 39.5893C16.2118 39.6069 16.2118 39.6069 16.2118 39.6069C16.2645 39.7127 16.3348 39.8185 16.405 39.9243C16.4753 40.0301 16.5455 40.1358 16.6333 40.2416C16.7211 40.3298 16.8265 40.4356 16.9319 40.5237C17.0372 40.6295 17.1426 40.7176 17.2655 40.8058C17.687 41.176 17.7923 41.2994 18.3367 41.5815C18.4245 41.6344 18.5123 41.6697 18.6177 41.7226C18.6353 41.7226 18.6528 41.7402 18.6704 41.7402C18.6704 41.7754 18.6704 41.7931 18.688 41.8284C18.7056 41.9694 18.7407 42.1104 18.7758 42.2515C18.8109 42.4102 18.8636 42.5512 18.9163 42.6746C18.969 42.7804 19.0041 42.8862 19.0568 42.992C19.0744 43.0272 19.0919 43.0625 19.1095 43.0801C19.1797 43.2211 19.2499 43.3446 19.3202 43.468C19.408 43.5914 19.4958 43.7148 19.5836 43.8382C19.6714 43.944 19.7768 44.0674 19.8821 44.1732C19.9875 44.279 20.0929 44.3671 20.2158 44.4729C20.2158 44.4729 20.2334 44.4906 20.2509 44.4906C20.3563 44.5787 20.4616 44.6669 20.567 44.7374C20.6899 44.8255 20.8128 44.8961 20.9533 44.9666C21.0763 45.0371 21.2167 45.1076 21.3572 45.1605C21.4626 45.2134 21.5855 45.2487 21.7084 45.2839C21.726 45.3016 21.7435 45.3016 21.7787 45.3192C21.849 45.3368 21.9368 45.3544 22.007 45.3721C21.9543 46.3241 21.9367 47.2232 22.0773 47.5406C22.2353 47.8932 23.008 46.8177 23.7807 45.5836C23.6753 46.8001 23.6051 48.2281 23.7807 48.6513C23.9739 49.092 25.0275 47.7169 25.9407 46.2007C38.3914 43.3093 49.7534 51.9481 50.9476 64.1482C50.7193 62.2441 48.3837 61.1863 47.3124 61.4507C46.7856 62.7554 45.89 64.4302 44.45 65.4704C44.5729 64.3068 44.5203 63.108 44.2744 61.9444C43.888 63.5664 43.1329 65.0826 42.0968 66.3872C40.4285 66.5106 38.7602 65.6996 37.8822 64.4831C37.8119 64.4302 37.7944 64.3244 37.7417 64.2539C37.689 64.1305 37.6363 64.0071 37.6012 63.8837C37.5485 63.7603 37.5134 63.6369 37.4958 63.5135C37.4782 63.39 37.4782 63.2666 37.4782 63.1256C37.4782 63.0375 37.4782 62.9493 37.4782 62.8612C37.4958 62.7377 37.5309 62.6143 37.566 62.4909C37.6011 62.3675 37.6363 62.2441 37.689 62.1207C37.7592 61.9973 37.8119 61.8739 37.8997 61.7505C38.1982 60.9042 38.1982 60.2166 37.6539 59.8111C37.5485 59.7406 37.4431 59.6877 37.3202 59.6348C37.2499 59.6172 37.1621 59.5819 37.0919 59.5643C37.0392 59.5466 37.0041 59.529 36.9514 59.5114C36.8285 59.4762 36.7056 59.4408 36.5826 59.4232C36.4597 59.388 36.3368 59.3704 36.2139 59.3704C36.0909 59.3527 35.9504 59.3351 35.8275 59.3351C35.7397 59.3351 35.6519 59.3528 35.5641 59.3528C35.4236 59.3528 35.3007 59.3705 35.1778 59.4057C35.0548 59.4233 34.9319 59.4409 34.809 59.4762C34.686 59.5114 34.5631 59.5468 34.4402 59.5996C34.3173 59.6525 34.2119 59.7054 34.089 59.7583C33.9836 59.8112 33.8782 59.8817 33.7553 59.9346C29.6636 62.6144 32.1046 68.8907 34.8968 70.7066C33.8431 70.9005 32.7719 71.1297 32.4734 71.3589C32.4558 71.3766 32.4383 71.3942 32.4383 71.3942C33.1934 71.8525 33.9836 72.2404 34.809 72.5754C35.9329 72.9456 37.1271 73.2806 37.6539 73.4216V73.4393C39.1114 73.739 40.5866 73.8448 42.0793 73.7566C49.8588 73.2101 56.2334 67.2687 57.3925 59.4409C57.4275 59.5996 57.4627 59.7407 57.4978 59.8993C57.5505 60.2167 57.6207 60.5516 57.6559 60.8866C57.6559 60.8866 57.6559 60.8866 57.6559 60.9043C57.691 61.063 57.7085 61.2216 57.7261 61.3627C57.7261 61.3979 57.7261 61.4156 57.7261 61.4332C57.7437 61.5919 57.7612 61.7506 57.7612 61.8916C57.7788 62.0855 57.7963 62.2795 57.7963 62.4734C57.7963 62.5616 57.7963 62.6497 57.7963 62.7555C57.7963 62.8436 57.8139 62.9494 57.8139 63.0376C57.8139 63.1434 57.7963 63.2491 57.7963 63.3549C57.7963 63.4431 57.7963 63.5312 57.7963 63.6017C57.7963 63.7251 57.7787 63.8309 57.7787 63.9543C57.7787 64.0249 57.7787 64.0954 57.7611 64.1835C57.7611 64.3069 57.7436 64.4303 57.7436 64.5714C57.7259 64.6243 57.7259 64.6772 57.7259 64.7301C57.7084 64.8711 57.6908 64.9945 57.6733 65.1356C57.6733 65.1885 57.6733 65.2413 57.6557 65.2942C57.6381 65.4705 57.603 65.6292 57.5854 65.8055V65.8408C57.5503 65.9995 57.5151 66.1758 57.48 66.3345C57.48 66.3521 57.48 66.3697 57.48 66.3874C57.4449 66.546 57.4098 66.7047 57.3747 66.8634C57.3747 66.8811 57.3571 66.9163 57.3571 66.9339C57.322 67.0926 57.2868 67.2513 57.2342 67.4099C57.2342 67.4276 57.2342 67.4452 57.2342 67.4628C57.1815 67.6391 57.1288 67.7978 57.0937 67.9565C57.0761 67.9741 57.0761 67.9917 57.0761 67.9917C57.0234 68.168 56.9707 68.3443 56.918 68.5206C56.8478 68.6969 56.7951 68.8556 56.7249 69.0319C56.6546 69.2082 56.602 69.3845 56.5317 69.5432C56.4614 69.7195 56.3912 69.8781 56.321 70.0544H56.3034C56.2331 70.2131 56.1629 70.3894 56.0751 70.5481C56.0575 70.601 56.04 70.6362 56.0224 70.6715C56.0048 70.6892 56.0048 70.7067 55.9873 70.7244C54.8458 73.0339 53.16 75.0614 51.0527 76.6481C50.9122 76.7363 50.7717 76.842 50.6312 76.9478C50.5961 76.983 50.5434 77.0007 50.5083 77.036C50.3853 77.1241 50.2624 77.2123 50.1219 77.3004L50.1746 77.4062H50.1922C50.438 77.371 50.6839 77.3357 50.9298 77.3004H50.9473C51.4039 77.2299 51.8605 77.1417 52.3171 77.0536C52.44 77.0359 52.5805 77.0007 52.7034 76.9654C52.7912 76.9478 52.8615 76.9302 52.9493 76.9125C53.0722 76.8949 53.1951 76.8597 53.3181 76.842C53.4234 76.8068 53.5288 76.7891 53.6342 76.7539C55.3903 76.3307 57.0937 75.7489 58.7268 75.0614C55.9347 78.8871 52.1942 81.9724 47.8215 83.9998C49.841 83.8588 51.8605 83.5238 53.8098 82.9597C60.8869 80.8617 66.84 76.0839 70.4049 69.6489C69.6849 73.7215 68.0693 77.6001 65.681 80.9851C67.3844 79.8568 68.9474 78.5521 70.3698 77.0712C74.3035 72.9457 76.8849 67.7096 77.763 62.0856C78.3601 64.8711 78.5357 67.7449 78.2722 70.5833C90.9513 52.8297 79.3259 34.4239 74.4615 29.5756C74.4439 29.5404 74.4264 29.5227 74.4264 29.4874C74.4088 29.5051 74.4088 29.5051 74.4088 29.5227C74.4088 29.505 74.4088 29.505 74.3912 29.4874C74.3912 29.699 74.3736 29.9106 74.3561 30.1221C74.3034 30.5276 74.2508 30.9155 74.1805 31.3034C74.0927 31.6912 73.9873 32.0791 73.882 32.4669C73.7591 32.8372 73.6186 33.225 73.4605 33.5953C73.3025 33.9479 73.1269 34.3181 72.9337 34.6707C72.7405 35.0057 72.5298 35.3583 72.3015 35.6756C72.0732 36.0106 71.8273 36.3279 71.5815 36.6276C71.3181 36.945 71.0371 37.2271 70.7561 37.5092C70.5805 37.6678 70.4225 37.8089 70.2468 37.9499C70.1064 38.0733 69.9834 38.1791 69.8429 38.3025C69.5268 38.5493 69.2108 38.7785 68.8595 38.9901C68.5259 39.2016 68.1747 39.4132 67.8234 39.5895C67.4547 39.7658 67.0859 39.9245 66.7171 40.0832C66.3483 40.2242 65.962 40.3476 65.5756 40.4534C65.1893 40.5592 64.7854 40.6473 64.399 40.7178C63.9951 40.7884 63.5912 40.8236 63.2049 40.8589C62.9239 40.8765 62.6429 40.8941 62.362 40.8941C61.9581 40.8941 61.5542 40.8589 61.1678 40.8236C60.7639 40.7883 60.36 40.7354 59.9737 40.6473C59.5698 40.5767 59.1834 40.471 58.7971 40.3476H58.7795C59.1658 40.3123 59.5522 40.277 59.9385 40.2065C60.3424 40.136 60.7288 40.0478 61.1151 39.9421C61.5015 39.8363 61.8878 39.7129 62.2566 39.5718C62.6429 39.4308 63.0117 39.2545 63.3629 39.0782C63.7317 38.9019 64.0654 38.7079 64.4166 38.4964C64.7502 38.2672 65.0839 38.038 65.4 37.7912C65.7161 37.5444 66.0146 37.2799 66.2956 36.9978C66.5942 36.7334 66.8576 36.4337 67.121 36.1339C67.3844 35.8166 67.6302 35.4993 67.8585 35.1819C67.8936 35.129 67.9288 35.0585 67.9639 35.0056C68.1395 34.7235 68.3151 34.4415 68.4732 34.1594C68.6663 33.8068 68.842 33.4542 69 33.0839C69.158 32.7137 69.2985 32.3435 69.4215 31.9556C69.5444 31.5854 69.6322 31.1975 69.72 30.8096C69.7903 30.4042 69.8605 30.0163 69.8956 29.6284C69.9307 29.2229 69.9659 28.8174 69.9659 28.4296C69.9659 28.1475 69.9483 27.8654 69.9308 27.5833C69.8957 27.1778 69.843 26.79 69.7903 26.4021C69.72 25.9966 69.6323 25.6088 69.5269 25.2209C69.404 24.8507 69.281 24.4628 69.1405 24.0926C69.0001 23.7223 68.8244 23.3521 68.6488 22.9995C68.4557 22.6469 68.2625 22.2943 68.0518 21.9593C67.8235 21.6243 67.5952 21.307 67.3493 20.9897C67.0859 20.6899 66.8225 20.3902 66.5415 20.0905C66.401 19.9495 66.243 19.7908 66.0849 19.6498C65.2947 19.0327 64.4693 18.4509 63.644 17.922C63.521 17.8515 63.4157 17.7986 63.2927 17.7457C62.7132 17.3755 62.1688 17.1814 61.6244 17.0051Z" fill="#E0234E"/>
</svg>
