<svg width="143" height="100" viewBox="0 0 143 100" fill="none" xmlns="http://www.w3.org/2000/svg">
<rect width="143" height="100" rx="20" fill="white"/>
<g clip-path="url(#clip0_277_15)">
<path d="M70.8631 84.0003C70.4968 84.0003 70.133 83.9042 69.8118 83.7192L66.4652 81.7374C65.9654 81.4578 66.2093 81.3589 66.3742 81.3019C67.0406 81.0685 67.1759 81.0158 67.8872 80.6117C67.962 80.5691 68.0598 80.5841 68.1364 80.6293L70.7073 82.1553C70.8001 82.2055 70.9319 82.2055 71.018 82.1553L81.0422 76.3675C81.1351 76.3148 81.1953 76.2069 81.1953 76.0965V64.5259C81.1953 64.4104 81.1351 64.3075 81.0402 64.2498L71.02 58.467C70.9271 58.4118 70.8042 58.4118 70.7113 58.467L60.6931 64.2498C60.596 64.305 60.5342 64.413 60.5342 64.5234V76.0939C60.5342 76.2044 60.5945 76.3098 60.6898 76.3625L63.4349 77.9487C64.9253 78.6942 65.8362 77.8157 65.8362 76.9322V65.5123C65.8362 65.3491 65.9642 65.2236 66.1273 65.2236H67.3969C67.555 65.2236 67.6855 65.3491 67.6855 65.5123V76.9373C67.6855 78.9251 66.6015 80.0671 64.7171 80.0671C64.1375 80.0671 63.6808 80.0671 62.4061 79.4396L59.7765 77.9236C59.4567 77.7371 59.1915 77.47 59.007 77.1489C58.8225 76.8279 58.7254 76.4642 58.7251 76.0939V64.5234C58.7251 63.7704 59.1266 63.0677 59.7765 62.6962L69.8108 56.9059C70.4456 56.547 71.2887 56.547 71.9185 56.9059L81.9403 62.6987C82.2599 62.8847 82.5253 63.1513 82.7097 63.472C82.8942 63.7926 82.9914 64.156 82.9916 64.5259V76.0965C82.9916 76.8469 82.5876 77.5472 81.9403 77.9236L71.9185 83.7139C71.5972 83.899 71.2328 83.9959 70.8621 83.9951" fill="#689F63"/>
<path d="M73.9595 76.0273C69.5734 76.0273 68.6538 74.0134 68.6538 72.3242C68.6538 72.1636 68.7833 72.0356 68.9441 72.0356H70.2389C70.3819 72.0356 70.5023 72.1397 70.5249 72.281C70.7206 73.6007 71.3028 74.2664 73.955 74.2664C76.0678 74.2664 76.966 73.789 76.966 72.6683C76.966 72.0233 76.7101 71.5439 73.4281 71.2226C70.683 70.9516 68.9868 70.3467 68.9868 68.1505C68.9868 66.1276 70.693 64.9228 73.551 64.9228C76.7603 64.9228 78.3511 66.0372 78.5519 68.4316C78.5552 68.4719 78.5501 68.5124 78.537 68.5506C78.5239 68.5888 78.503 68.6239 78.4757 68.6536C78.4483 68.6833 78.4151 68.707 78.3781 68.7233C78.3411 68.7395 78.3012 68.7479 78.2608 68.7479H76.9585C76.823 68.7479 76.7051 68.6525 76.6775 68.522C76.3638 67.134 75.6061 66.6898 73.546 66.6898C71.24 66.6898 70.9716 67.4929 70.9716 68.0953C70.9716 68.8257 71.2877 69.039 74.3991 69.4506C77.4804 69.8598 78.9433 70.437 78.9433 72.6031C78.9433 74.7867 77.1216 76.0391 73.945 76.0391L73.9595 76.0273ZM86.1547 63.7683H86.491C86.767 63.7683 86.8197 63.575 86.8197 63.4621C86.8197 63.1659 86.6164 63.1659 86.5035 63.1659H86.1573L86.1547 63.7683ZM85.7458 62.8195H86.491C86.7469 62.8195 87.2488 62.8195 87.2488 63.3918C87.2488 63.7909 86.9928 63.8737 86.8398 63.9239C87.1384 63.944 87.1584 64.1397 87.1986 64.4158C87.2187 64.589 87.2513 64.8877 87.3115 64.9881H86.8523C86.8398 64.8877 86.7695 64.3355 86.7695 64.3054C86.7394 64.1824 86.6967 64.1222 86.5437 64.1222H86.1648V64.9906H85.7458V62.8195ZM84.85 63.8988C84.85 64.7973 85.5751 65.5252 86.4659 65.5252C87.3642 65.5252 88.0893 64.7823 88.0893 63.8988C88.0893 62.9977 87.3541 62.2824 86.4634 62.2824C85.5852 62.2824 84.8475 62.9877 84.8475 63.8963L84.85 63.8988ZM88.4005 63.9038C88.4005 64.968 87.5298 65.8364 86.4684 65.8364C85.4145 65.8364 84.5363 64.978 84.5363 63.9038C84.5363 62.8095 85.4346 61.9712 86.4684 61.9712C87.5097 61.9712 88.398 62.812 88.398 63.9038" fill="#689F63"/>
<path fill-rule="evenodd" clip-rule="evenodd" d="M39.8215 38.7269C39.8215 38.2651 39.5781 37.841 39.1796 37.6113L28.5516 31.4947C28.3738 31.3911 28.1731 31.3333 27.9675 31.3266H27.8576C27.6538 31.3341 27.4528 31.3893 27.2704 31.4947L16.6429 37.6113C16.4475 37.725 16.2853 37.888 16.1725 38.084C16.0597 38.2799 16.0003 38.5021 16.0001 38.7282L16.0234 55.2031C16.0234 55.4315 16.1413 55.6448 16.3421 55.7578C16.5378 55.8782 16.7837 55.8782 16.9794 55.7578L23.2976 52.1385C23.6965 51.9011 23.9399 51.4814 23.9399 51.0241V43.3276C23.9395 43.1022 23.9985 42.8807 24.1111 42.6854C24.2237 42.4902 24.3858 42.3282 24.581 42.2157L27.2709 40.6661C27.466 40.5527 27.6877 40.4932 27.9133 40.4934C28.1331 40.4934 28.3574 40.5501 28.5516 40.6658L31.2402 42.2149C31.6382 42.4433 31.8826 42.8675 31.8826 43.3268V51.0229C31.8826 51.4797 32.1292 51.9013 32.5262 52.1372L38.8404 55.754C38.9375 55.8119 39.0485 55.8425 39.1615 55.8425C39.2746 55.8425 39.3856 55.8119 39.4827 55.754C39.5794 55.6972 39.6596 55.6162 39.7154 55.5189C39.7712 55.4216 39.8007 55.3115 39.8009 55.1993L39.8215 38.7269ZM89.9724 47.3047C89.9724 47.4194 89.9115 47.5256 89.8118 47.5823L86.1615 49.6871C86.1127 49.7151 86.0575 49.7299 86.0012 49.7299C85.945 49.7299 85.8898 49.7151 85.841 49.6871L82.1901 47.5823C82.0898 47.5253 82.0295 47.4192 82.0295 47.3047V43.0891C82.0295 42.9742 82.0898 42.8683 82.1876 42.8105L85.836 40.7022C85.9364 40.6445 86.0593 40.6445 86.1597 40.7022L89.8106 42.8105C89.911 42.8683 89.9712 42.9742 89.9712 43.0891L89.9724 47.3047ZM90.9586 16.0813C90.8607 16.0268 90.7504 15.9988 90.6385 16C90.5266 16.0012 90.4169 16.0316 90.3202 16.0881C90.1245 16.2035 90.0036 16.4143 90.0036 16.6427V32.957C90.0037 33.0359 89.983 33.1134 89.9436 33.1817C89.9043 33.2501 89.8476 33.3068 89.7793 33.3463C89.711 33.3857 89.6335 33.4065 89.5546 33.4064C89.4758 33.4064 89.3983 33.3855 89.3301 33.346L86.6678 31.8122C86.4729 31.6995 86.2516 31.6402 86.0265 31.6402C85.8013 31.6402 85.5801 31.6995 85.3851 31.8122L74.7536 37.9496C74.5586 38.0618 74.3965 38.2234 74.2837 38.4182C74.171 38.6129 74.1115 38.8339 74.1112 39.059V51.3373C74.1112 51.7967 74.3564 52.2183 74.7536 52.4492L85.3851 58.5909C85.7821 58.8193 86.2709 58.8193 86.6691 58.5909L97.3006 52.4467C97.697 52.2158 97.9429 51.7941 97.9429 51.3348V20.7343C97.9426 20.5056 97.8812 20.281 97.7652 20.0838C97.6492 19.8866 97.4828 19.7239 97.283 19.6124L90.9586 16.0813ZM126.362 42.9782C126.556 42.8652 126.717 42.7032 126.829 42.5085C126.941 42.3137 127 42.093 127 41.8683V38.8926C127 38.4348 126.756 38.0124 126.361 37.782L115.797 31.6478C115.601 31.5344 115.379 31.4747 115.153 31.4747C114.927 31.4747 114.705 31.5344 114.51 31.6478L103.881 37.7845C103.482 38.0154 103.238 38.4371 103.238 38.8964V51.1697C103.238 51.6315 103.487 52.0582 103.886 52.2866L114.447 58.3078C114.836 58.5312 115.313 58.5337 115.707 58.3153L122.095 54.7638C122.296 54.6509 122.424 54.4376 122.424 54.2066C122.424 53.9757 122.301 53.7599 122.1 53.6469L111.406 47.5078C111.205 47.3948 111.082 47.1815 111.082 46.9531V43.1029C111.082 42.873 111.203 42.6612 111.403 42.5467L114.731 40.6267C114.929 40.5112 115.172 40.5112 115.37 40.6267L118.7 42.5467C118.898 42.6597 119.021 42.873 119.021 43.1014V46.1283C119.021 46.3567 119.144 46.5701 119.342 46.6855C119.541 46.7985 119.787 46.7985 119.985 46.683L126.362 42.9782Z" fill="#333333"/>
<path fill-rule="evenodd" clip-rule="evenodd" d="M114.998 42.404C115.035 42.3821 115.078 42.3706 115.121 42.3706C115.164 42.3706 115.206 42.3821 115.244 42.404L117.284 43.5811C117.36 43.6253 117.407 43.7066 117.407 43.7944V46.1512C117.407 46.2391 117.36 46.3204 117.284 46.3645L115.244 47.5417C115.206 47.5635 115.164 47.575 115.121 47.575C115.078 47.575 115.035 47.5635 114.998 47.5417L112.959 46.3645C112.921 46.3433 112.89 46.3123 112.868 46.2748C112.845 46.2373 112.834 46.1947 112.834 46.1512V43.7944C112.834 43.7066 112.879 43.6253 112.957 43.5811L114.998 42.404Z" fill="#689F63"/>
<path d="M79.4974 36.7759L49.7093 22.1709L34.4358 53.3371L64.2231 67.9429L79.4974 36.7759Z" fill="url(#paint0_linear_277_15)"/>
<path d="M32.5016 41.0957L53.5351 69.5711L81.3521 49.0137L60.3175 20.5391L32.5016 41.0957Z" fill="url(#paint1_linear_277_15)"/>
<path d="M45.7879 31.5405V58.5042H68.793V31.5405H45.7879Z" fill="url(#paint2_linear_277_15)"/>
</g>
<defs>
<linearGradient id="paint0_linear_277_15" x1="64.5944" y1="29.4504" x2="49.3153" y2="60.6113" gradientUnits="userSpaceOnUse">
<stop offset="0.3" stop-color="#3E863D"/>
<stop offset="0.5" stop-color="#55934F"/>
<stop offset="0.8" stop-color="#5AAD45"/>
</linearGradient>
<linearGradient id="paint1_linear_277_15" x1="43.1444" y1="55.4967" x2="70.9678" y2="34.944" gradientUnits="userSpaceOnUse">
<stop offset="0.57" stop-color="#3E863D"/>
<stop offset="0.72" stop-color="#619857"/>
<stop offset="1" stop-color="#76AC64"/>
</linearGradient>
<linearGradient id="paint2_linear_277_15" x1="45.7957" y1="45.0231" x2="68.7974" y2="45.0231" gradientUnits="userSpaceOnUse">
<stop offset="0.16" stop-color="#6BBF47"/>
<stop offset="0.38" stop-color="#79B461"/>
<stop offset="0.47" stop-color="#75AC64"/>
<stop offset="0.7" stop-color="#659E5A"/>
<stop offset="0.9" stop-color="#3E863D"/>
</linearGradient>
<clipPath id="clip0_277_15">
<rect width="111" height="68" fill="white" transform="translate(16 16)"/>
</clipPath>
</defs>
</svg>
