<svg width="161" height="100" viewBox="0 0 161 100" fill="none" xmlns="http://www.w3.org/2000/svg">
<rect width="161" height="100" rx="20" fill="white"/>
<path d="M16 50C16 68.7776 44.9386 84 80.6341 84C116.334 84 145.268 68.7776 145.268 50C145.268 31.2224 116.33 16 80.6341 16C44.9343 16 16 31.2224 16 50" fill="url(#paint0_radial_277_15)"/>
<path d="M80.6306 81.4759C114.932 81.4759 142.736 67.3836 142.736 50.0001C142.736 32.6166 114.936 18.5269 80.6306 18.5269C46.3258 18.5269 18.525 32.6192 18.525 50.0027C18.525 67.3862 46.3327 81.4785 80.6306 81.4785" fill="#777BB3"/>
<path d="M51.1153 53.9013C53.9357 53.9013 56.0412 53.3801 57.3737 52.3561C58.6914 51.3415 59.6017 49.5834 60.0794 47.1305C60.5241 44.8382 60.3547 43.2374 59.5756 42.374C58.7791 41.4915 57.0566 41.0441 54.4578 41.0441H49.9505L47.4516 53.8996L51.1153 53.9013ZM36.3742 69.7395C36.2707 69.7396 36.1685 69.7167 36.0749 69.6726C35.9814 69.6284 35.8988 69.5641 35.833 69.4842C35.7672 69.4045 35.7199 69.3112 35.6943 69.211C35.6688 69.1109 35.6657 69.0063 35.6854 68.9048L42.3076 34.8319C42.3389 34.6721 42.4246 34.5282 42.5503 34.4247C42.676 34.3212 42.8337 34.2646 42.9964 34.2646H57.2694C61.7549 34.2646 65.0939 35.4807 67.1924 37.885C69.291 40.2893 69.9538 43.676 69.1286 47.9192C68.8134 49.5907 68.2341 51.2013 67.4122 52.6905C66.5765 54.1691 65.5104 55.505 64.2539 56.6479C62.7721 58.057 60.9968 59.1207 59.0553 59.7627C56.7359 60.4331 54.3272 60.7427 51.9136 60.6808H46.1339L44.4835 69.1723C44.4525 69.332 44.3669 69.4759 44.2413 69.5794C44.1158 69.6829 43.9582 69.7395 43.7956 69.7395H36.3742Z" fill="black"/>
<path d="M50.529 41.7459H54.4586C57.596 41.7459 58.6861 42.4348 59.0562 42.8447C59.6703 43.5257 59.7867 44.9624 59.3915 46.9984C58.9476 49.2777 58.125 50.8941 56.9463 51.801C55.7398 52.7304 53.7776 53.2012 51.1153 53.2012H48.3019L50.529 41.7459ZM57.2686 33.5636H42.9964C42.6709 33.5637 42.3555 33.677 42.1043 33.8841C41.8531 34.0913 41.6818 34.3793 41.6197 34.6989L34.9974 68.7719C34.958 68.9749 34.9639 69.1842 35.0148 69.3846C35.0657 69.5851 35.1603 69.7718 35.2919 69.9315C35.4234 70.0911 35.5887 70.2197 35.7758 70.308C35.9629 70.3963 36.1673 70.4422 36.3742 70.4422H43.7964C44.122 70.4421 44.4374 70.3288 44.6886 70.1217C44.9398 69.9146 45.1111 69.6265 45.1732 69.3069L46.7132 61.3835H51.9145C54.4019 61.4447 56.884 61.1224 59.2733 60.428C61.3119 59.7541 63.1762 58.6376 64.7325 57.1586C66.0417 55.9661 67.1527 54.5728 68.0237 53.0309C68.882 51.4768 69.4872 49.7958 69.8165 48.0512C70.6851 43.5848 69.9798 40.0087 67.7197 37.422C65.4821 34.8605 61.9651 33.561 57.2686 33.561V33.5636ZM46.6012 54.6031H51.1179C54.1106 54.6031 56.34 54.0394 57.8062 52.9119C59.2725 51.7845 60.2612 49.9025 60.7725 47.266C61.2636 44.7337 61.0398 42.9469 60.1011 41.9058C59.1624 40.8646 57.2828 40.3434 54.4621 40.3423H49.3764L46.6012 54.6031ZM57.2694 34.9664C61.5633 34.9664 64.6949 36.0933 66.6643 38.3471C68.6338 40.6008 69.2259 43.7469 68.4406 47.7854C68.1407 49.384 67.5871 50.9244 66.8007 52.3482C66.0021 53.7626 64.9822 55.04 63.7797 56.1319C62.3729 57.4739 60.6853 58.4862 58.839 59.0956C56.5901 59.7448 54.2544 60.043 51.9145 59.9798H45.5588L43.7964 69.0385H36.3742L42.9964 34.9656H57.2694" fill="white"/>
<path d="M86.1525 60.6823C86.049 60.6824 85.9468 60.6595 85.8532 60.6154C85.7597 60.5712 85.677 60.5068 85.6113 60.4269C85.5455 60.3473 85.4981 60.254 85.4725 60.1538C85.447 60.0536 85.444 59.9491 85.4636 59.8476L88.3935 44.772C88.6723 43.3379 88.6037 42.3095 88.1998 41.8743C87.9531 41.6085 87.2113 41.1629 85.0189 41.1629H79.7117L76.0245 60.1142C75.9932 60.274 75.9075 60.4179 75.7818 60.5214C75.6561 60.6249 75.4984 60.6814 75.3357 60.6814H67.9716C67.8681 60.6814 67.7659 60.6586 67.6724 60.6144C67.5788 60.5702 67.4962 60.5059 67.4304 60.4261C67.3646 60.3464 67.3173 60.2531 67.2917 60.1529C67.2662 60.0528 67.2631 59.9482 67.2828 59.8467L73.9051 25.7737C73.9363 25.614 74.0221 25.4701 74.1477 25.3666C74.2734 25.2631 74.4311 25.2065 74.5939 25.2065H81.9579C82.0614 25.2066 82.1635 25.2295 82.2571 25.2737C82.3506 25.3178 82.4333 25.3821 82.4991 25.4619C82.565 25.5417 82.6124 25.6351 82.638 25.7355C82.6635 25.8358 82.6665 25.9405 82.6467 26.0422L81.0485 34.2662H86.7605C91.1096 34.2662 94.0568 35.0331 95.7766 36.6114C97.5278 38.2209 98.0741 40.7938 97.401 44.2604L94.3174 60.1142C94.2863 60.2741 94.2006 60.4181 94.0749 60.5216C93.9492 60.6251 93.7914 60.6816 93.6286 60.6814L86.1525 60.6823Z" fill="black"/>
<path d="M81.957 24.5054H74.5929C74.2674 24.5054 73.952 24.6188 73.7008 24.8259C73.4496 25.033 73.2783 25.3211 73.2162 25.6406L66.5939 59.7136C66.5544 59.9166 66.5603 60.1259 66.6112 60.3264C66.6621 60.5269 66.7568 60.7136 66.8884 60.8732C67.0199 61.0329 67.1852 61.1615 67.3723 61.2498C67.5594 61.3381 67.7638 61.3839 67.9707 61.3839H75.3347C75.6603 61.3839 75.9757 61.2706 76.2269 61.0634C76.4781 60.8563 76.6494 60.5683 76.7115 60.2487L80.2841 41.8637H85.0128C87.2017 41.8637 87.6612 42.331 87.6794 42.351C87.8123 42.4934 87.9869 43.1553 87.6985 44.6371L84.7704 59.7136C84.7309 59.9166 84.7369 60.1259 84.7878 60.3264C84.8387 60.5269 84.9333 60.7136 85.0649 60.8732C85.1965 61.0329 85.3617 61.1615 85.5489 61.2498C85.736 61.3381 85.9403 61.3839 86.1472 61.3839H93.6277C93.9532 61.3839 94.2686 61.2706 94.5198 61.0634C94.771 60.8563 94.9423 60.5683 95.0044 60.2487L98.0862 44.3965C98.8089 40.6745 98.1905 37.882 96.2483 36.0978C94.3946 34.3954 91.2902 33.5684 86.757 33.5684H81.898L83.3338 26.1801C83.3739 25.9763 83.3683 25.7663 83.3174 25.565C83.2664 25.3637 83.1715 25.1762 83.0393 25.0161C82.9077 24.8564 82.7425 24.7278 82.5554 24.6395C82.3682 24.5512 82.1639 24.5054 81.957 24.5054V24.5054ZM81.957 25.9082L80.1929 34.9669H86.7535C90.8811 34.9669 93.7284 35.6867 95.2954 37.1263C96.8624 38.5658 97.3323 40.8986 96.7051 44.1247L93.6242 59.9803H86.1437L89.0735 44.9047C89.4071 43.1895 89.2843 42.02 88.7053 41.3964C88.1262 40.7727 86.8945 40.4606 85.0102 40.46H79.1245L75.3313 59.9803H67.9672L74.5895 25.9073H81.9535" fill="white"/>
<path d="M109.048 53.9013C111.869 53.9013 113.974 53.3801 115.307 52.3561C116.624 51.3415 117.535 49.5834 118.012 47.1305C118.457 44.8382 118.288 43.2374 117.508 42.374C116.712 41.4915 114.989 41.0441 112.391 41.0441H107.883L105.384 53.8996L109.048 53.9013ZM94.3079 69.7395C94.2044 69.7396 94.1022 69.7167 94.0087 69.6726C93.9151 69.6284 93.8325 69.5641 93.7667 69.4842C93.7009 69.4045 93.6536 69.3112 93.628 69.211C93.6025 69.1109 93.5994 69.0063 93.6191 68.9048L100.241 34.8319C100.273 34.6721 100.358 34.5282 100.484 34.4247C100.61 34.3212 100.767 34.2646 100.93 34.2646H115.203C119.689 34.2646 123.028 35.4807 125.126 37.885C127.225 40.2893 127.887 43.676 127.062 47.9192C126.747 49.5906 126.168 51.2012 125.346 52.6905C124.51 54.1691 123.444 55.505 122.188 56.6479C120.706 58.057 118.93 59.1207 116.989 59.7627C114.67 60.4331 112.261 60.7427 109.847 60.6808H104.068L102.417 69.1723C102.386 69.3321 102.3 69.476 102.175 69.5795C102.049 69.683 101.891 69.7395 101.728 69.7395H94.3079Z" fill="black"/>
<path d="M108.463 41.7465H112.392C115.53 41.7465 116.62 42.4353 116.99 42.8453C117.605 43.5263 117.72 44.963 117.325 46.9982C116.881 49.2774 116.059 50.8939 114.88 51.8016C113.673 52.731 111.711 53.2018 109.049 53.2018H106.236L108.463 41.7465ZM115.202 33.5642H100.93C100.604 33.5643 100.289 33.6776 100.038 33.8847C99.7867 34.0919 99.6154 34.3799 99.5533 34.6995L92.931 68.7725C92.8916 68.9755 92.8975 69.1848 92.9484 69.3852C92.9993 69.5857 93.0939 69.7724 93.2255 69.9321C93.357 70.0917 93.5223 70.2203 93.7094 70.3086C93.8965 70.3969 94.1009 70.4428 94.3078 70.4428H101.73C102.056 70.4427 102.371 70.3294 102.622 70.1223C102.873 69.9152 103.045 69.6271 103.107 69.3075L104.647 61.3841H109.848C112.336 61.4453 114.818 61.123 117.207 60.4286C119.246 59.7548 121.11 58.6383 122.667 57.1592C123.976 55.9667 125.087 54.5734 125.958 53.0315C126.816 51.4774 127.422 49.7964 127.751 48.0518C128.62 43.5854 127.914 40.0093 125.654 37.4226C123.417 34.8611 119.9 33.5625 115.203 33.5625L115.202 33.5642ZM104.534 54.6037H109.051C112.043 54.6037 114.273 54.04 115.739 52.9125C117.205 51.7851 118.194 49.9031 118.705 47.2666C119.197 44.7343 118.973 42.9475 118.034 41.9064C117.095 40.8652 115.215 40.344 112.395 40.3429H107.309L104.534 54.6037ZM115.201 34.967C119.495 34.967 122.627 36.0939 124.596 38.3477C126.566 40.6014 127.158 43.7475 126.372 47.786C126.073 49.3846 125.519 50.925 124.733 52.3488C123.934 53.7632 122.914 55.0405 121.712 56.1325C120.305 57.4745 118.617 58.4868 116.771 59.0962C114.522 59.7454 112.186 60.0436 109.846 59.9804H103.492L101.73 69.0391H94.3078L100.93 34.9662H115.203" fill="white"/>
<defs>
<radialGradient id="paint0_radial_277_15" cx="0" cy="0" r="1" gradientUnits="userSpaceOnUse" gradientTransform="translate(52.7643 70.8439) scale(84.8579 84.864)">
<stop stop-color="#AEB2D5"/>
<stop offset="0.3" stop-color="#AEB2D5"/>
<stop offset="0.75" stop-color="#484C89"/>
<stop offset="1" stop-color="#484C89"/>
</radialGradient>
</defs>
</svg>
