<svg width="123" height="100" viewBox="0 0 123 100" fill="none" xmlns="http://www.w3.org/2000/svg">
<rect width="123" height="100" rx="20" fill="white"/>
<path d="M94.3422 55.0839C91.4831 55.0832 88.6622 55.7376 86.0973 56.9964C85.2588 55.3102 84.3912 53.8371 84.2489 52.7321C84.0069 51.5533 83.9538 50.3437 84.0917 49.1484C84.3659 47.8416 84.7269 46.5544 85.1723 45.2953C85.1582 45.1386 84.9735 44.3602 83.14 44.3461C81.3065 44.332 79.7284 44.7001 79.5437 45.1817C79.2196 46.0619 78.9676 46.9668 78.7901 47.8875C78.4631 49.5447 75.1223 55.4661 73.2314 58.554C72.652 57.586 72.2253 56.535 71.9661 55.4379C71.724 54.2591 71.6709 53.0495 71.8089 51.8542C72.0829 50.5474 72.4437 49.2602 72.8888 48.0011C72.8746 47.8444 72.6899 47.066 70.8564 47.0519C69.0229 47.0378 67.4448 47.4059 67.2602 47.8875C67.0755 48.3691 66.8766 49.5024 66.5065 50.5933C66.1363 51.6842 61.6874 61.5425 60.5219 64.1066C59.9246 65.4098 59.413 66.456 59.0436 67.1664C58.987 67.2791 58.9446 67.3504 58.9155 67.4076C58.9579 67.3371 58.987 67.2658 58.987 67.2948C58.6727 67.9033 58.4895 68.244 58.4895 68.244V68.2581C58.2475 68.7115 57.9779 69.1195 57.8498 69.1195C57.634 68.1903 57.6486 67.2226 57.8923 66.3002C58.5603 62.8723 60.1384 57.5461 60.1234 57.3621C60.1093 57.2626 60.4221 56.344 59.0853 55.8459C58.7777 55.702 58.4334 55.6549 58.0982 55.7109C57.7631 55.7669 57.453 55.9232 57.2093 56.1592C57.0961 56.1592 57.0105 56.4427 57.0105 56.4427C57.0105 56.4427 58.4463 50.4367 54.2528 50.4367C51.6373 50.4367 47.9986 53.2983 46.2075 55.8905C45.0845 56.4998 42.6537 57.8171 40.0948 59.2189C39.114 59.757 38.1049 60.3099 37.1524 60.8338C37.0817 60.7625 37.0243 60.692 36.9536 60.6208C31.8673 55.2115 22.4711 51.3874 22.8695 44.1198C23.0118 41.4711 23.9376 34.516 40.9365 26.0736C54.8673 19.1607 66.0114 21.0614 67.9313 25.2803C70.689 31.3003 61.975 42.5057 47.5043 44.1198C41.9888 44.7291 39.0889 42.6044 38.3643 41.811C37.6106 40.9754 37.4998 40.9323 37.2129 41.0882C36.7414 41.3427 37.0424 42.0797 37.2129 42.519C37.6397 43.6381 39.4135 45.6211 42.4439 46.6125C45.1018 47.474 51.5697 47.9588 59.3878 44.9413C68.1726 41.5698 75.0099 32.1759 73.0059 24.317C70.9586 16.328 57.6675 13.7076 45.0876 18.1551C37.5965 20.8038 29.4939 24.9686 23.6656 30.3942C16.7427 36.8537 15.6346 42.4767 16.0888 44.8285C17.7093 53.1714 29.2518 58.612 33.8713 62.6343C33.6442 62.7619 33.4304 62.8755 33.2316 62.9882C30.9155 64.1356 22.1159 68.7248 19.913 73.5702C17.4256 79.0664 20.3224 83.0041 22.2298 83.5429C28.172 85.1875 34.254 82.2256 37.5249 77.3661C40.7959 72.5067 40.3966 66.1616 38.8893 63.2694C38.8751 63.2271 38.8468 63.1989 38.8327 63.1558C39.4292 62.8019 40.0406 62.451 40.652 62.0939C41.8309 61.4 42.983 60.7625 43.9921 60.2104C43.3126 62.1569 42.911 64.189 42.7991 66.2469C42.5437 69.3631 43.8373 73.4003 45.5144 74.9869C45.8143 75.2427 46.1622 75.4368 46.5379 75.5578C46.9136 75.6787 47.3096 75.7243 47.7031 75.6918C49.6678 75.6918 50.5457 74.0769 51.5265 72.1503C52.7352 69.8009 53.8009 67.0646 53.8009 67.0646C53.8009 67.0646 52.4649 74.4591 56.1177 74.4591C57.4537 74.4591 58.7898 72.7448 59.387 71.8668V71.8809C59.387 71.8809 59.4153 71.8246 59.4868 71.7118C59.6291 71.4988 59.6998 71.3719 59.6998 71.3719V71.3288C60.2397 70.4078 61.4202 68.2972 63.1963 64.813C65.4998 60.3106 67.7026 54.6876 67.7026 54.6876C67.9154 55.924 68.21 57.145 68.5844 58.3426C69.1216 59.8005 69.7578 61.2202 70.4886 62.592C69.9487 63.3281 69.6241 63.7534 69.6241 63.7534C69.6253 63.7642 69.6303 63.7742 69.6383 63.7816C69.2123 64.3486 68.729 64.9563 68.2315 65.5523C66.4122 67.7052 64.251 70.1729 63.9673 70.8777C63.7734 71.1909 63.7066 71.566 63.7805 71.9265C63.8543 72.2871 64.0633 72.606 64.3649 72.8184C65.0475 73.1806 65.8322 73.3045 66.5937 73.17C67.7437 73.1115 68.8744 72.8525 69.9346 72.4049C70.9572 72.0399 71.9237 71.5346 72.8062 70.9036C73.7134 70.2791 74.4438 69.4321 74.9268 68.4444C75.4099 67.4568 75.6293 66.3617 75.564 65.2649C75.4575 63.8828 75.106 62.5306 74.5258 61.2708C74.683 61.0437 74.8527 60.8009 75.0091 60.566C76.8599 57.817 78.5267 54.9494 79.9988 51.9818C80.2115 53.2179 80.5058 54.4386 80.8798 55.636C81.322 56.8904 81.8639 58.1076 82.5003 59.2761C80.3726 60.9088 78.703 63.0604 77.6529 65.5233C76.6006 68.5408 77.4257 69.9003 78.9747 70.2128C79.8148 70.2638 80.6534 70.0925 81.4055 69.7163C82.5039 69.3522 83.5395 68.8218 84.476 68.1437C86.2529 66.8406 87.9733 65.0111 87.8593 62.534C87.785 61.3951 87.5257 60.2758 87.0915 59.2197C89.8954 58.1228 92.9375 57.772 95.9187 58.2016C103.837 59.1226 105.386 64.0518 105.087 66.1052C104.948 66.8411 104.652 67.5386 104.218 68.1498C103.784 68.7611 103.223 69.2716 102.572 69.6466C102.017 69.9865 101.847 70.1165 101.89 70.3695C101.961 70.7375 102.217 70.7234 102.685 70.6381C103.875 70.2646 104.923 69.5409 105.691 68.5624C106.46 67.5838 106.914 66.3963 106.992 65.156C107.22 60.3396 102.572 55.0424 94.339 55.0847L94.3422 55.0839ZM33.3172 75.5813C30.7018 78.4289 27.034 79.5049 25.4583 78.5988C23.767 77.6214 24.4366 73.43 27.6588 70.3969C29.5704 68.6827 31.6354 67.1465 33.8281 65.8076C34.2116 65.5813 34.7664 65.2414 35.4486 64.8302C35.5626 64.7597 35.6191 64.7315 35.6191 64.7315C35.7472 64.6462 35.8895 64.5749 36.0317 64.4903C36.6076 66.4128 36.6597 68.4534 36.1825 70.4025C35.7053 72.3517 34.7161 74.1391 33.3165 75.5813H33.3172ZM52.4224 62.6343C51.5123 64.8576 49.5932 70.5245 48.4285 70.2269C47.4359 69.9716 46.8213 65.6517 48.2297 61.4024C48.9429 59.3496 49.995 57.4298 51.3426 55.7222C52.7784 54.1214 54.3557 53.6077 54.722 54.2491C55.2194 55.0847 52.9875 61.2465 52.4193 62.635L52.4224 62.6343ZM68.2009 70.1423C67.8174 70.3405 67.4621 70.4681 67.2916 70.3687C67.1635 70.2982 67.4488 70.0288 67.4488 70.0288C67.4488 70.0288 69.4245 67.9182 70.2065 66.9549C70.6615 66.3887 71.1873 65.7222 71.7555 64.9861C71.7555 65.0566 71.7696 65.1278 71.7696 65.2124C71.7547 67.7482 69.3098 69.4626 68.2009 70.1423ZM80.3689 67.3802C80.0844 67.182 80.1269 66.5187 81.0762 64.448C81.7344 63.1228 82.6529 61.9427 83.7774 60.9779C83.945 61.4711 84.0362 61.9868 84.0477 62.5074C84.0607 63.6109 83.7065 64.6876 83.0406 65.5693C82.3746 66.451 81.4343 67.088 80.3666 67.3809L80.3689 67.3802Z" fill="#CF649A"/>
</svg>
