<svg width="93" height="100" viewBox="0 0 93 100" fill="none" xmlns="http://www.w3.org/2000/svg">
<rect width="93" height="100" rx="20" fill="white"/>
<path d="M77.4124 16H16V84H77.4124V16Z" fill="black"/>
<path d="M46.3707 24.6245C42.9983 24.6245 39.7017 25.6246 36.8977 27.4982C34.0937 29.3718 31.9083 32.0349 30.6178 35.1506C29.3273 38.2662 28.9897 41.6947 29.6478 45.0022C30.3058 48.3098 31.9299 51.3479 34.3146 53.7324C36.6993 56.1169 39.7376 57.7407 43.0452 58.3985C46.3529 59.0562 49.7812 58.7183 52.8968 57.4276C56.0124 56.1368 58.6752 53.9511 60.5486 51.1469C62.422 48.3428 63.4217 45.046 63.4214 41.6736C63.4214 39.4346 62.9804 37.2175 62.1235 35.1489C61.2666 33.0803 60.0106 31.2007 58.4273 29.6175C56.844 28.0344 54.9643 26.7786 52.8956 25.9219C50.8269 25.0651 48.6098 24.6243 46.3707 24.6245V24.6245ZM55.5662 34.4895C55.3993 34.5119 55.2296 34.499 55.068 34.4516C54.9064 34.4041 54.7566 34.3232 54.6283 34.2141C54.5 34.1049 54.3962 33.97 54.3235 33.8181C54.2507 33.6662 54.2108 33.5006 54.2063 33.3323C54.1984 33.059 54.2825 32.791 54.4451 32.5713C54.6212 32.2268 54.6588 32.1869 54.6541 32.0373C54.6377 31.5856 53.9565 31.5676 53.7694 31.5777C51.21 31.6623 50.5351 35.1166 49.9886 37.925L49.7209 39.4063C50.7735 39.6324 51.8721 39.4811 52.8244 38.9788C53.6465 38.4456 52.5942 37.8968 52.7273 37.2908C52.7884 37.0312 52.9338 36.7992 53.1407 36.631C53.3477 36.4628 53.6046 36.368 53.8712 36.3614C54.0256 36.3766 54.1755 36.4221 54.3123 36.4954C54.4491 36.5686 54.5701 36.6681 54.6684 36.7882C54.7667 36.9083 54.8403 37.0466 54.885 37.1952C54.9297 37.3437 54.9446 37.4997 54.9289 37.6541C54.907 38.7431 53.4617 40.2377 50.5727 40.1782C50.2204 40.1704 49.8963 40.1454 49.5948 40.1086L49.0468 43.1174C48.559 45.3965 47.91 48.5094 45.5901 51.2262C43.5976 53.5954 41.5745 53.9665 40.6686 53.9939C38.9743 54.051 37.8501 53.1475 37.8109 51.9418C37.8028 51.4803 37.9722 51.0333 38.2841 50.6931C38.5961 50.3529 39.0267 50.1455 39.4872 50.1137C39.6805 50.099 39.8749 50.1234 40.0586 50.1853C40.2424 50.2473 40.4118 50.3456 40.5568 50.4744C40.7018 50.6032 40.8194 50.7598 40.9026 50.9349C40.9859 51.1101 41.033 51.3002 41.0413 51.494C41.0687 51.69 41.0317 51.8896 40.9358 52.0627C40.8399 52.2358 40.6904 52.3731 40.5097 52.4538C40.3625 52.5721 40.1401 52.6934 40.1487 52.9557C40.168 53.07 40.2316 53.1721 40.3257 53.2397C40.4199 53.3073 40.5369 53.335 40.6514 53.3166C41.2116 53.2762 41.7449 53.0607 42.1758 52.7005C43.827 51.3248 44.4619 48.9275 45.2942 44.5642L45.4688 43.5057C45.753 42.087 46.0677 40.5047 46.5469 38.9271C45.3834 38.051 44.6858 36.9651 43.12 36.54C42.7468 36.379 42.3312 36.3444 41.9366 36.4415C41.542 36.5386 41.1899 36.7621 40.934 37.0778C40.6952 37.388 40.5796 37.7756 40.6095 38.1659C40.6394 38.5562 40.8127 38.9216 41.0961 39.1917L41.9652 40.1532C43.0307 41.3847 43.6132 42.3454 43.394 43.6318C43.0456 45.6893 40.595 47.2685 37.6958 46.372C35.2218 45.6094 34.7598 43.858 35.0566 42.8935C35.0946 42.727 35.1689 42.5709 35.2741 42.4364C35.3794 42.3019 35.5129 42.1922 35.6653 42.1152C35.8177 42.0381 35.9852 41.9956 36.1559 41.9906C36.3266 41.9856 36.4963 42.0182 36.653 42.0862C36.9805 42.2211 37.244 42.476 37.3896 42.7989C37.5351 43.1218 37.5517 43.4881 37.4359 43.8228C37.3999 43.9414 37.3554 44.0573 37.3028 44.1696C37.1901 44.3468 37.0902 44.5318 37.0037 44.7232C36.8471 45.2407 37.5518 45.6094 38.0489 45.7606C38.5252 45.9302 39.0489 45.9067 39.508 45.6949C39.967 45.4831 40.3249 45.1 40.505 44.6276C40.5845 44.3401 40.5814 44.036 40.4963 43.7502C40.4112 43.4643 40.2473 43.2081 40.0235 43.0109L38.9751 41.8889C38.5122 41.4061 38.1767 40.8156 37.999 40.1707C37.8213 39.5259 37.807 38.8469 37.9573 38.1951C38.1715 37.4896 38.5983 36.8675 39.1795 36.4139C39.7379 35.9812 40.3921 35.6891 41.087 35.5621C41.7819 35.4351 42.4971 35.477 43.1724 35.6842C44.8871 36.1775 45.7107 37.3111 46.7794 38.1896C47.3478 36.3941 48.2552 34.7243 49.4523 33.2704C49.9776 32.5981 50.6377 32.0431 51.3902 31.6411C52.1427 31.239 52.971 30.9987 53.8219 30.9357C55.5522 30.8786 56.8604 31.6631 56.9035 32.9048C56.9365 33.2928 56.8141 33.6781 56.5632 33.976C56.3123 34.2738 55.9535 34.4599 55.5655 34.4934L55.5662 34.4895Z" fill="white"/>
<path d="M52.6968 65.8239C53.0856 65.8116 53.4727 65.8807 53.8333 66.0266C54.194 66.1725 54.5201 66.3921 54.791 66.6714C55.0618 66.9506 55.2714 67.2834 55.4062 67.6483C55.5411 68.0132 55.5982 68.4022 55.5741 68.7905C55.5851 69.176 55.5186 69.5599 55.3787 69.9193C55.2388 70.2787 55.0281 70.6064 54.7593 70.883C54.4905 71.1596 54.169 71.3795 53.8137 71.5296C53.4584 71.6797 53.0766 71.7571 52.6909 71.7571C52.3052 71.7571 51.9234 71.6797 51.5682 71.5296C51.2129 71.3795 50.8913 71.1596 50.6225 70.883C50.3537 70.6064 50.1431 70.2787 50.0031 69.9193C49.8632 69.5599 49.7968 69.176 49.8078 68.7905C49.784 68.4013 49.8418 68.0114 49.9775 67.6459C50.1132 67.2804 50.3239 66.9473 50.5959 66.668C50.8679 66.3886 51.1953 66.1693 51.5571 66.0239C51.9189 65.8786 52.3071 65.8104 52.6968 65.8239V65.8239ZM52.6968 70.913C53.9189 70.913 54.4631 69.802 54.4631 68.7905C54.5102 68.531 54.4997 68.2643 54.4325 68.0093C54.3652 67.7543 54.2427 67.5172 54.0737 67.3148C53.9047 67.1123 53.6933 66.9495 53.4544 66.8377C53.2155 66.726 52.955 66.668 52.6913 66.668C52.4276 66.668 52.1671 66.726 51.9282 66.8377C51.6893 66.9495 51.4779 67.1123 51.3089 67.3148C51.1399 67.5172 51.0174 67.7543 50.9502 68.0093C50.8829 68.2643 50.8724 68.531 50.9195 68.7905C50.9234 69.802 51.4668 70.913 52.6968 70.913Z" fill="white"/>
<path d="M49.6692 66.3515V65.9601H48.1691V65.4214C48.1691 64.6549 48.2803 64.0771 49.1799 64.0771H49.2316C49.2316 64.0771 49.2316 64.0771 49.2355 64.0771C49.2949 64.0796 49.3542 64.0703 49.4101 64.0498C49.4659 64.0293 49.5171 63.998 49.5608 63.9576C49.6044 63.9172 49.6397 63.8686 49.6645 63.8145C49.6893 63.7605 49.7031 63.702 49.7052 63.6426L49.724 63.3004C49.4929 63.2591 49.2588 63.2368 49.0241 63.2339C47.4801 63.2339 47.1247 64.1335 47.1247 65.5122V65.9616H45.7937V66.4016C45.8098 66.5144 45.8664 66.6174 45.9528 66.6916C46.0392 66.7657 46.1496 66.806 46.2635 66.8048V66.8048H47.1247V71.6269H47.7017C47.8165 71.6279 47.9277 71.5867 48.0143 71.5113C48.1008 71.4358 48.1567 71.3313 48.1715 71.2174V66.8048H49.2159C49.3348 66.8007 49.4478 66.7517 49.5319 66.6675C49.616 66.5834 49.6651 66.4704 49.6692 66.3515V66.3515Z" fill="white"/>
<path d="M35.7581 65.957H35.7526C35.6405 65.9615 35.5319 65.9971 35.4389 66.0599C35.346 66.1227 35.2724 66.2101 35.2265 66.3125L33.7882 70.646H33.7663L32.357 66.3164C32.3111 66.2135 32.2374 66.1255 32.1442 66.0623C32.0509 65.999 31.9419 65.9631 31.8293 65.9586H31.8238H31.0957L33.0178 71.2473C33.1048 71.4399 33.172 71.6408 33.2182 71.847C33.2182 71.9582 32.9051 73.2469 31.9726 73.2469C31.9491 73.2469 31.9264 73.2469 31.9037 73.243C31.7889 73.238 31.6768 73.278 31.5911 73.3545C31.5054 73.431 31.4529 73.5379 31.4449 73.6525L31.4167 74.0142C31.6506 74.0649 31.8891 74.0912 32.1284 74.0925C33.5056 74.0925 33.9166 72.8398 34.3057 71.7484L36.3946 65.9594H35.7526L35.7581 65.957Z" fill="white"/>
<path d="M29.1188 67.1089C28.2576 66.6681 27.3126 66.3675 27.2962 65.4804C27.2962 64.5409 28.1652 64.2896 28.8338 64.2904H28.8409C29.0925 64.2883 29.3436 64.3146 29.5894 64.3687C29.5894 64.3687 29.5894 64.3687 29.5956 64.3687C29.711 64.3742 29.8241 64.3352 29.9116 64.2598C29.999 64.1843 30.0541 64.0781 30.0654 63.9631L30.0842 63.6202C29.661 63.5148 29.2268 63.4599 28.7908 63.4565C27.3384 63.4652 26.2603 64.1964 26.2572 65.59C26.2572 66.8091 27.0808 67.2812 27.964 67.7094C28.8307 68.126 29.7796 68.4704 29.7874 69.4757C29.7714 69.6836 29.7139 69.8861 29.6186 70.0714C29.5232 70.2568 29.3917 70.4212 29.232 70.5551C29.0722 70.689 28.8873 70.7897 28.6881 70.8511C28.4889 70.9126 28.2795 70.9337 28.072 70.9132C27.655 70.8996 27.2423 70.8253 26.8467 70.6924C26.6119 70.654 26.4208 70.8607 26.3911 71.134L26.3598 71.4393C26.8623 71.6242 27.3906 71.7299 27.9256 71.7525H27.9327C29.5588 71.7408 30.8233 71.0917 30.8295 69.4076C30.8256 68.1017 29.9981 67.556 29.1188 67.1089Z" fill="white"/>
<path d="M44.9152 71.6235C45.0226 71.6233 45.1267 71.5866 45.2105 71.5195C45.2943 71.4523 45.3528 71.3587 45.3764 71.254V67.9907C45.3764 66.7576 44.8541 65.8236 43.4088 65.8236C43.0443 65.8315 42.6888 65.938 42.3799 66.1316C42.071 66.3253 41.8203 66.599 41.6543 66.9236C41.5343 66.5949 41.3144 66.312 41.0254 66.1147C40.7364 65.9174 40.3929 65.8156 40.043 65.8236C39.6833 65.797 39.3233 65.8726 39.0047 66.0418C38.6861 66.2109 38.4218 66.4667 38.2423 66.7795H38.2196V66.4272C38.2186 66.3029 38.1687 66.1841 38.0809 66.0962C37.993 66.0083 37.8741 65.9585 37.7498 65.9575H37.7451H37.2456V71.6243H37.8101C37.9351 71.6243 38.0549 71.575 38.1437 71.487C38.2324 71.399 38.2827 71.2795 38.2838 71.1546C38.2839 71.1494 38.2853 71.1443 38.2877 71.1397V68.7737C38.2877 67.7175 38.7097 66.6738 39.7753 66.6738C40.6193 66.6738 40.7868 67.5515 40.7868 68.2514V71.629H41.3615C41.4796 71.6294 41.5935 71.5853 41.6805 71.5055C41.7676 71.4257 41.8214 71.3161 41.8312 71.1984V68.7713C41.8312 67.7151 42.2532 66.6715 43.3188 66.6715C44.1628 66.6715 44.3304 67.5492 44.3304 68.2491V71.6267H44.9121L44.9152 71.6235Z" fill="white"/>
<path d="M61.0538 71.6241C61.1753 71.6241 61.2922 71.5771 61.3798 71.4929C61.4674 71.4087 61.5189 71.2937 61.5236 71.1723V68.2582C61.5236 66.7362 60.8675 65.8249 59.401 65.8249C59.0266 65.8099 58.6554 65.8985 58.3281 66.081C58.0008 66.2635 57.7303 66.5327 57.5463 66.8591H57.5243V66.4356C57.5246 66.3105 57.4753 66.1904 57.3873 66.1015C57.2993 66.0126 57.1797 65.9621 57.0546 65.9611H57.0491H56.5167V71.628H57.0914C57.2104 71.6283 57.325 71.5834 57.4122 71.5025C57.4994 71.4215 57.5526 71.3105 57.5612 71.1919V69.0059C57.5612 67.6288 58.0951 66.6728 59.2836 66.6728C60.1957 66.7284 60.4831 67.3727 60.4831 68.6943V71.6272H61.0546L61.0538 71.6241Z" fill="white"/>
<path d="M66.6769 65.957H66.6714C66.5593 65.9615 66.4507 65.9971 66.3578 66.0599C66.2648 66.1227 66.1912 66.2101 66.1453 66.3125L64.7086 70.6444H64.6859L63.2766 66.3148C63.2308 66.2119 63.157 66.1239 63.0638 66.0607C62.9706 65.9975 62.8615 65.9616 62.7489 65.957H62.7442H62.0161L63.9382 71.2457C64.0251 71.4384 64.0922 71.6393 64.1386 71.8455C64.1386 71.9566 63.8255 73.2453 62.8938 73.2453C62.8703 73.2453 62.8476 73.2453 62.8241 73.2414C62.7096 73.2367 62.5977 73.2768 62.5123 73.3533C62.4269 73.4298 62.3747 73.5365 62.3669 73.6509L62.3387 74.0126C62.5723 74.0633 62.8105 74.0895 63.0496 74.0909C64.4275 74.0909 64.8386 72.8382 65.2277 71.7468L67.3166 65.9578H66.6738L66.6769 65.957Z" fill="white"/>
</svg>
