<svg width="100" height="100" viewBox="0 0 100 100" fill="none" xmlns="http://www.w3.org/2000/svg">
<rect width="100" height="100" rx="20" fill="white"/>
<path d="M50.0004 16H49.9996C31.2221 16 16 31.2221 16 49.9996V50.0004C16 68.7779 31.2221 84 49.9996 84H50.0004C68.7779 84 84 68.7779 84 50.0004V49.9996C84 31.2221 68.7779 16 50.0004 16Z" fill="#3178C6"/>
<path d="M68.3414 16H31.6586C23.0106 16 16 23.0106 16 31.6586V68.3414C16 76.9894 23.0106 84 31.6586 84H68.3414C76.9894 84 84 76.9894 84 68.3414V31.6586C84 23.0106 76.9894 16 68.3414 16Z" fill="#3178C6"/>
<path fill-rule="evenodd" clip-rule="evenodd" d="M58.0951 70.1131V76.7617C59.3075 77.359 60.5995 77.7788 61.9315 78.0082C63.4707 78.291 65.0328 78.4301 66.5978 78.4239C68.1233 78.4307 69.6453 78.2775 71.1388 77.9667C72.4782 77.7002 73.7571 77.1896 74.9117 76.4603C75.9812 75.7736 76.8634 74.832 77.479 73.72C78.5802 71.4179 78.726 68.7736 77.8845 66.3644C77.5283 65.4632 76.9987 64.6407 76.3257 63.9435C75.6015 63.2019 74.7797 62.5624 73.8829 62.0426C72.8505 61.4401 71.778 60.9091 70.6729 60.4532C69.7997 60.0931 69.0168 59.7434 68.3241 59.4041C67.7064 59.1091 67.1152 58.7615 66.5571 58.3652C66.1197 58.0602 65.7396 57.6804 65.4343 57.2432C65.1717 56.8461 65.0352 56.3789 65.0429 55.9028C65.0372 55.4651 65.16 55.0353 65.396 54.6666C65.6522 54.2796 65.9934 53.9562 66.3934 53.7208C66.884 53.4336 67.4174 53.2266 67.9734 53.1078C68.6557 52.9559 69.3531 52.8826 70.0521 52.8893C70.6396 52.8917 71.2262 52.9333 71.8082 53.0138C72.4363 53.0994 73.0578 53.2278 73.6684 53.3982C74.2901 53.5708 74.8981 53.7896 75.4872 54.0528C76.0584 54.3061 76.6046 54.6122 77.1188 54.9672V48.7539C76.047 48.3507 74.9356 48.062 73.8031 47.8927C72.4369 47.694 71.0575 47.6002 69.677 47.6124C68.1655 47.6045 66.6583 47.7753 65.1869 48.1213C63.8582 48.4242 62.5945 48.9625 61.4555 49.7106C60.3992 50.4119 59.5262 51.3558 58.9094 52.4634C58.2578 53.6938 57.9355 55.0717 57.9738 56.4634C57.9251 58.3035 58.5329 60.1008 59.6884 61.5337C61.1077 63.1258 62.8956 64.3457 64.8957 65.0866C65.8101 65.4609 66.6625 65.8281 67.4527 66.1882C68.1648 66.5055 68.8495 66.8807 69.5001 67.3102C70.0242 67.6502 70.485 68.0792 70.8616 68.5777C71.1922 69.0293 71.3672 69.5761 71.3603 70.1358C71.3627 70.5546 71.2547 70.9667 71.0472 71.3305C70.8154 71.7221 70.4905 72.0505 70.1014 72.2865C69.6132 72.5832 69.0794 72.7972 68.5214 72.9199C67.7949 73.0826 67.0518 73.1594 66.3073 73.1485C64.8469 73.145 63.3981 72.8883 62.0254 72.3898C60.5899 71.8717 59.2588 71.1006 58.0951 70.1131ZM46.9172 53.731H55.4465V48.2747H31.6727V53.731H40.1605V78.0254H46.9172V53.731Z" fill="white"/>
</svg>
