<svg width="100" height="100" viewBox="0 0 100 100" fill="none" xmlns="http://www.w3.org/2000/svg">
<path d="M0 20C0 8.9543 8.95431 0 20 0H80C91.0457 0 100 8.95431 100 20V80C100 91.0457 91.0457 100 80 100H20C8.9543 100 0 91.0457 0 80V20Z" fill="#FFFEFE"/>
<path d="M50.0005 84C31.1587 84 15.8589 68.9829 16.001 50C16.1431 31.0171 30.4508 16 50.0005 16C69.5515 16 84 31.3 84 50C84 68.7 68.8423 84 50.0005 84ZM60.0582 78.7579L50.4255 52.8329L41.3585 79.325C48.0176 80.8842 52.5505 81.3079 60.0582 78.7579ZM36.5428 77.3421L22.093 37.8171C20.1088 42.0671 19.6851 45.6092 19.4009 50C19.543 61.6158 26.0587 72.2408 36.5428 77.3421ZM80.4593 50C80.6001 42.4921 77.2014 36.5421 76.9172 35.6921C77.2014 41.5013 76.3501 44.475 75.3594 47.7342L65.4424 76.2092C77.9093 68.7 80.3158 57.5079 80.6001 50H80.4593ZM49.0097 48.725L44.1927 35.55L40.6506 35.2671C39.2349 34.275 40.0835 32.7171 41.0756 32.7171C47.4505 33.1421 50.9913 33.1421 57.3675 32.7171C58.9267 32.7171 59.3504 34.9842 57.5083 35.2671L54.1083 35.55L65.1568 68.1329L70.3975 50.2829C70.6818 42.4921 68.5555 41.6421 65.7226 35.975C63.4555 31.5829 65.8647 27.3329 70.2568 27.1921C66.7134 23.7921 59.4898 19.5421 49.9978 19.4C40.5059 19.2579 30.4481 24.075 24.4982 33.1421L34.9823 32.8592C36.2573 33.4263 35.6902 35.2671 34.9823 35.4092L31.2994 35.6921L42.3493 68.8421L49.0097 48.725Z" fill="#21759B"/>
</svg>
